{"asset":{"version":"2.0","generator":"Blockbench 4.12.3 glTF exporter"},"scenes":[{"nodes":[7],"name":"blockbench_export"}],"scene":0,"nodes":[{"translation":[1,0,3],"name":"left_leg"},{"translation":[9,0,3],"name":"right_leg"},{"translation":[-5,8,0],"name":"left_arm"},{"translation":[5,8,0],"name":"right arm"},{"translation":[0,11,0],"name":"head"},{"translation":[5,6,3],"name":"upper_body","children":[2,3,4]},{"name":"Avatar","children":[0,1,5]},{"translation":[-5,13,-3],"name":"Avatar","mesh":0,"children":[6],"skin":0}],"bufferViews":[{"buffer":0,"byteOffset":0,"byteLength":5184,"target":34962,"byteStride":12},{"buffer":0,"byteOffset":5184,"byteLength":5184,"target":34962,"byteStride":12},{"buffer":0,"byteOffset":10368,"byteLength":3456,"target":34962,"byteStride":8},{"buffer":0,"byteOffset":13824,"byteLength":3456,"target":34962,"byteStride":8},{"buffer":0,"byteOffset":17280,"byteLength":6912,"target":34962,"byteStride":16},{"buffer":0,"byteOffset":24192,"byteLength":1296,"target":34963},{"buffer":0,"byteOffset":25488,"byteLength":448},{"buffer":0,"byteOffset":25936,"byteLength":12},{"buffer":0,"byteOffset":25948,"byteLength":48},{"buffer":0,"byteOffset":25996,"byteLength":12},{"buffer":0,"byteOffset":26008,"byteLength":48},{"buffer":0,"byteOffset":26056,"byteLength":12},{"buffer":0,"byteOffset":26068,"byteLength":48}],"buffers":[{"byteLength":26116,"uri":"data:application/octet-stream;base64,"}],"accessors":[{"bufferView":0,"componentType":5126,"count":432,"max":[24,25,7],"min":[-14,-13,-1],"type":"VEC3"},{"bufferView":1,"componentType":5126,"count":432,"max":[1,1,1],"min":[-1,-1,-1],"type":"VEC3"},{"bufferView":2,"componentType":5126,"count":432,"max":[0.703125,0.703125],"min":[0,0],"type":"VEC2"},{"bufferView":3,"componentType":5123,"count":432,"max":[0,6,0,0],"min":[0,0,0,0],"type":"VEC4"},{"bufferView":4,"componentType":5126,"count":432,"max":[0,1,0,0],"min":[0,1,0,0],"type":"VEC4"},{"bufferView":5,"componentType":5123,"count":648,"max":[431],"min":[0],"type":"SCALAR"},{"bufferView":6,"componentType":5126,"count":7,"max":[1,0,0,0,0,1,0,0,0,0,1,0,0,0,0,1],"min":[1,0,0,0,0,1,0,0,0,0,1,0,-10,-17,-3,1],"type":"MAT4"},{"bufferView":7,"componentType":5126,"count":3,"max":[0.6000000238418579],"min":[0],"type":"SCALAR"},{"bufferView":8,"componentType":5126,"count":3,"max":[0,0,0.591309666633606,0.9238795042037964],"min":[0,0,0.3826834261417389,0.8064445853233337],"type":"VEC4"},{"bufferView":9,"componentType":5126,"count":3,"max":[0.6000000238418579],"min":[0],"type":"SCALAR"},{"bufferView":10,"componentType":5126,"count":3,"max":[0,0,-0.4617486000061035,0.8870108127593994],"min":[0,0,-0.6087614297866821,0.7933533191680908],"type":"VEC4"},{"bufferView":11,"componentType":5126,"count":3,"max":[0.6000000238418579],"min":[0],"type":"SCALAR"},{"bufferView":12,"componentType":5126,"count":3,"max":[0.04361938685178757,0,0,0.9990482330322266],"min":[-0.06540312618017197,0,0,0.9978589415550232],"type":"VEC4"}],"materials":[{"pbrMetallicRoughness":{"metallicFactor":0,"roughnessFactor":1,"baseColorTexture":{"index":0}},"alphaMode":"MASK","alphaCutoff":0.05,"doubleSided":true}],"textures":[{"sampler":0,"source":0,"name":"player.png"}],"samplers":[{"magFilter":9728,"minFilter":9728,"wrapS":33071,"wrapT":33071}],"images":[{"mimeType":"image/png","uri":"data:image/png;base64,"}],"meshes":[{"primitives":[{"mode":4,"attributes":{"POSITION":0,"NORMAL":1,"TEXCOORD_0":2,"JOINTS_0":3,"WEIGHTS_0":4},"indices":5,"material":0}]}],"skins":[{"inverseBindMatrices":6,"joints":[6,0,1,5,2,3,4],"skeleton":6}],"animations":[{"name":"idle","samplers":[{"input":7,"output":8,"interpolation":"LINEAR"},{"input":9,"output":10,"interpolation":"LINEAR"},{"input":11,"output":12,"interpolation":"LINEAR"}],"channels":[{"sampler":0,"target":{"node":2,"path":"rotation"}},{"sampler":1,"target":{"node":3,"path":"rotation"}},{"sampler":2,"target":{"node":5,"path":"rotation"}}]}]}