{"asset":{"version":"2.0","generator":"Blockbench 4.12.3 glTF exporter"},"scenes":[{"nodes":[21],"name":"blockbench_export"}],"scene":0,"nodes":[{"translation":[-13,-4,10.5],"name":"cube","mesh":0},{"translation":[16,0,16],"name":"floor1","mesh":1},{"translation":[-5.5,-3.5,-17.5],"name":"pyramid","mesh":2},{"translation":[17,0.5,-2],"name":"sphere","mesh":3},{"translation":[0,7,0],"name":"top","mesh":4},{"translation":[0,4.5,0],"name":"middle_ring","mesh":5},{"translation":[0,5,0],"name":"bottom","mesh":6},{"rotation":[0.7071067811865475,0,0,0.7071067811865476],"translation":[0,5,1.4000000000000004],"name":"front_button_1","mesh":7},{"rotation":[0.7071067811865475,0,0,0.7071067811865476],"translation":[0,5,1.5],"name":"front_button_2","mesh":8},{"translation":[0,-3,-10],"name":"pokeball","children":[4,5,6,7,8]},{"rotation":[0,0,-0.3826834323650898,0.9238795325112867],"translation":[0,-0.09999999999999998,0],"name":"cuboid","mesh":9},{"rotation":[0,0,0.3826834323650898,0.9238795325112867],"translation":[0,-0.09999999999999998,0],"name":"cuboid","mesh":10},{"translation":[4,1,17.5],"name":"cross","children":[10,11]},{"translation":[0,0,16],"name":"floor2","mesh":11},{"translation":[-16,0,16],"name":"floor3","mesh":12},{"translation":[16,0,0],"name":"floor4","mesh":13},{"name":"floor5","mesh":14},{"translation":[-16,0,0],"name":"floor6","mesh":15},{"translation":[16,0,-16],"name":"floor7","mesh":16},{"translation":[0,0,-16],"name":"floor8","mesh":17},{"translation":[-16,0,-16],"name":"floor9","mesh":18},{"children":[0,1,2,3,9,12,13,14,15,16,17,18,19,20]}],"bufferViews":[{"buffer":0,"byteOffset":0,"byteLength":288,"target":34962,"byteStride":12},{"buffer":0,"byteOffset":288,"byteLength":288,"target":34962,"byteStride":12},{"buffer":0,"byteOffset":576,"byteLength":192,"target":34962,"byteStride":8},{"buffer":0,"byteOffset":768,"byteLength":72,"target":34963},{"buffer":0,"byteOffset":840,"byteLength":48,"target":34962,"byteStride":12},{"buffer":0,"byteOffset":888,"byteLength":48,"target":34962,"byteStride":12},{"buffer":0,"byteOffset":936,"byteLength":32,"target":34962,"byteStride":8},{"buffer":0,"byteOffset":968,"byteLength":12,"target":34963},{"buffer":0,"byteOffset":980,"byteLength":192,"target":34962,"byteStride":12},{"buffer":0,"byteOffset":1172,"byteLength":192,"target":34962,"byteStride":12},{"buffer":0,"byteOffset":1364,"byteLength":128,"target":34962,"byteStride":8},{"buffer":0,"byteOffset":1492,"byteLength":36,"target":34963},{"buffer":0,"byteOffset":1528,"byteLength":3168,"target":34962,"byteStride":12},{"buffer":0,"byteOffset":4696,"byteLength":3168,"target":34962,"byteStride":12},{"buffer":0,"byteOffset":7864,"byteLength":2112,"target":34962,"byteStride":8},{"buffer":0,"byteOffset":9976,"byteLength":720,"target":34963},{"buffer":0,"byteOffset":10696,"byteLength":2616,"target":34962,"byteStride":12},{"buffer":0,"byteOffset":13312,"byteLength":2616,"target":34962,"byteStride":12},{"buffer":0,"byteOffset":15928,"byteLength":1744,"target":34962,"byteStride":8},{"buffer":0,"byteOffset":17672,"byteLength":612,"target":34963},{"buffer":0,"byteOffset":18284,"byteLength":1440,"target":34962,"byteStride":12},{"buffer":0,"byteOffset":19724,"byteLength":1440,"target":34962,"byteStride":12},{"buffer":0,"byteOffset":21164,"byteLength":960,"target":34962,"byteStride":8},{"buffer":0,"byteOffset":22124,"byteLength":288,"target":34963},{"buffer":0,"byteOffset":22412,"byteLength":2616,"target":34962,"byteStride":12},{"buffer":0,"byteOffset":25028,"byteLength":2616,"target":34962,"byteStride":12},{"buffer":0,"byteOffset":27644,"byteLength":1744,"target":34962,"byteStride":8},{"buffer":0,"byteOffset":29388,"byteLength":612,"target":34963},{"buffer":0,"byteOffset":30000,"byteLength":840,"target":34962,"byteStride":12},{"buffer":0,"byteOffset":30840,"byteLength":840,"target":34962,"byteStride":12},{"buffer":0,"byteOffset":31680,"byteLength":560,"target":34962,"byteStride":8},{"buffer":0,"byteOffset":32240,"byteLength":168,"target":34963},{"buffer":0,"byteOffset":32408,"byteLength":840,"target":34962,"byteStride":12},{"buffer":0,"byteOffset":33248,"byteLength":840,"target":34962,"byteStride":12},{"buffer":0,"byteOffset":34088,"byteLength":560,"target":34962,"byteStride":8},{"buffer":0,"byteOffset":34648,"byteLength":168,"target":34963},{"buffer":0,"byteOffset":34816,"byteLength":288,"target":34962,"byteStride":12},{"buffer":0,"byteOffset":35104,"byteLength":288,"target":34962,"byteStride":12},{"buffer":0,"byteOffset":35392,"byteLength":192,"target":34962,"byteStride":8},{"buffer":0,"byteOffset":35584,"byteLength":72,"target":34963},{"buffer":0,"byteOffset":35656,"byteLength":288,"target":34962,"byteStride":12},{"buffer":0,"byteOffset":35944,"byteLength":288,"target":34962,"byteStride":12},{"buffer":0,"byteOffset":36232,"byteLength":192,"target":34962,"byteStride":8},{"buffer":0,"byteOffset":36424,"byteLength":72,"target":34963},{"buffer":0,"byteOffset":36496,"byteLength":48,"target":34962,"byteStride":12},{"buffer":0,"byteOffset":36544,"byteLength":48,"target":34962,"byteStride":12},{"buffer":0,"byteOffset":36592,"byteLength":32,"target":34962,"byteStride":8},{"buffer":0,"byteOffset":36624,"byteLength":12,"target":34963},{"buffer":0,"byteOffset":36636,"byteLength":48,"target":34962,"byteStride":12},{"buffer":0,"byteOffset":36684,"byteLength":48,"target":34962,"byteStride":12},{"buffer":0,"byteOffset":36732,"byteLength":32,"target":34962,"byteStride":8},{"buffer":0,"byteOffset":36764,"byteLength":12,"target":34963},{"buffer":0,"byteOffset":36776,"byteLength":48,"target":34962,"byteStride":12},{"buffer":0,"byteOffset":36824,"byteLength":48,"target":34962,"byteStride":12},{"buffer":0,"byteOffset":36872,"byteLength":32,"target":34962,"byteStride":8},{"buffer":0,"byteOffset":36904,"byteLength":12,"target":34963},{"buffer":0,"byteOffset":36916,"byteLength":48,"target":34962,"byteStride":12},{"buffer":0,"byteOffset":36964,"byteLength":48,"target":34962,"byteStride":12},{"buffer":0,"byteOffset":37012,"byteLength":32,"target":34962,"byteStride":8},{"buffer":0,"byteOffset":37044,"byteLength":12,"target":34963},{"buffer":0,"byteOffset":37056,"byteLength":48,"target":34962,"byteStride":12},{"buffer":0,"byteOffset":37104,"byteLength":48,"target":34962,"byteStride":12},{"buffer":0,"byteOffset":37152,"byteLength":32,"target":34962,"byteStride":8},{"buffer":0,"byteOffset":37184,"byteLength":12,"target":34963},{"buffer":0,"byteOffset":37196,"byteLength":48,"target":34962,"byteStride":12},{"buffer":0,"byteOffset":37244,"byteLength":48,"target":34962,"byteStride":12},{"buffer":0,"byteOffset":37292,"byteLength":32,"target":34962,"byteStride":8},{"buffer":0,"byteOffset":37324,"byteLength":12,"target":34963},{"buffer":0,"byteOffset":37336,"byteLength":48,"target":34962,"byteStride":12},{"buffer":0,"byteOffset":37384,"byteLength":48,"target":34962,"byteStride":12},{"buffer":0,"byteOffset":37432,"byteLength":32,"target":34962,"byteStride":8},{"buffer":0,"byteOffset":37464,"byteLength":12,"target":34963},{"buffer":0,"byteOffset":37476,"byteLength":48,"target":34962,"byteStride":12},{"buffer":0,"byteOffset":37524,"byteLength":48,"target":34962,"byteStride":12},{"buffer":0,"byteOffset":37572,"byteLength":32,"target":34962,"byteStride":8},{"buffer":0,"byteOffset":37604,"byteLength":12,"target":34963}],"buffers":[{"byteLength":37616,"uri":"data:application/octet-stream;base64,"}],"accessors":[{"bufferView":0,"componentType":5126,"count":24,"max":[-6,5,-10.5],"min":[-7,4,-11.5],"type":"VEC3"},{"bufferView":1,"componentType":5126,"count":24,"max":[1,1,1],"min":[-1,-1,-1],"type":"VEC3"},{"bufferView":2,"componentType":5126,"count":24,"max":[0.1875,0.1875],"min":[0,0],"type":"VEC2"},{"bufferView":3,"componentType":5123,"count":36,"max":[23],"min":[0],"type":"SCALAR"},{"bufferView":4,"componentType":5126,"count":4,"max":[8,0,8],"min":[-8,0,-8],"type":"VEC3"},{"bufferView":5,"componentType":5126,"count":4,"max":[0,1,0],"min":[0,1,0],"type":"VEC3"},{"bufferView":6,"componentType":5126,"count":4,"max":[1,1],"min":[0,0],"type":"VEC2"},{"bufferView":7,"componentType":5123,"count":6,"max":[3],"min":[0],"type":"SCALAR"},{"bufferView":8,"componentType":5126,"count":16,"max":[0.5,4.5,0.5],"min":[-0.5,3.5,-0.5],"type":"VEC3"},{"bufferView":9,"componentType":5126,"count":16,"max":[0.8944271802902222,0.4472135901451111,0.8944271802902222],"min":[-0.8944271802902222,-1,-0.8944271802902222],"type":"VEC3"},{"bufferView":10,"componentType":5126,"count":16,"max":[0.3125,0.2640446424484253],"min":[0.0027229280676692724,0],"type":"VEC2"},{"bufferView":11,"componentType":5123,"count":18,"max":[15],"min":[0],"type":"SCALAR"},{"bufferView":12,"componentType":5126,"count":264,"max":[0.5,0.5,0.5],"min":[-0.5,-0.5,-0.5],"type":"VEC3"},{"bufferView":13,"componentType":5126,"count":264,"max":[0.9659258127212524,0.9659258127212524,0.9659258127212524],"min":[-0.9659258127212524,-0.9659258127212524,-0.9659258127212524],"type":"VEC3"},{"bufferView":14,"componentType":5126,"count":264,"max":[0.35100001096725464,0.3125],"min":[0.00516127422451973,0],"type":"VEC2"},{"bufferView":15,"componentType":5123,"count":360,"max":[263],"min":[0],"type":"SCALAR"},{"bufferView":16,"componentType":5126,"count":218,"max":[2,0,1.9781168699264526],"min":[-2,-1.8049581050872803,-2.021883010864258],"type":"VEC3"},{"bufferView":17,"componentType":5126,"count":218,"max":[0.9928136467933655,1,0.9705321788787842],"min":[-0.9928136467933655,0,-1],"type":"VEC3"},{"bufferView":18,"componentType":5126,"count":218,"max":[0.6875,0.6328125],"min":[0,0],"type":"VEC2"},{"bufferView":19,"componentType":5123,"count":306,"max":[217],"min":[0],"type":"SCALAR"},{"bufferView":20,"componentType":5126,"count":120,"max":[1.875,0.75,1.875],"min":[-1.875,0.25,-1.875],"type":"VEC3"},{"bufferView":21,"componentType":5126,"count":120,"max":[1,1,1],"min":[-1,-1,-1],"type":"VEC3"},{"bufferView":22,"componentType":5126,"count":120,"max":[0.6408500075340271,0.515625],"min":[0.1091499999165535,0.0078125],"type":"VEC2"},{"bufferView":23,"componentType":5123,"count":144,"max":[119],"min":[0],"type":"SCALAR"},{"bufferView":24,"componentType":5126,"count":218,"max":[2,-0.19504186511039734,1.9781168699264526],"min":[-2,-2,-2.021883010864258],"type":"VEC3"},{"bufferView":25,"componentType":5126,"count":218,"max":[0.9928136467933655,1,1],"min":[-0.9928136467933655,-0.9754317402839661,-0.9705321788787842],"type":"VEC3"},{"bufferView":26,"componentType":5126,"count":218,"max":[0.53125,0.53125],"min":[0,0.0086326003074646],"type":"VEC2"},{"bufferView":27,"componentType":5123,"count":306,"max":[217],"min":[0],"type":"SCALAR"},{"bufferView":28,"componentType":5126,"count":70,"max":[0.5410441756248474,0.6000000238418579,0.5],"min":[-0.5410441756248474,0.4000000059604645,-0.5549581050872803],"type":"VEC3"},{"bufferView":29,"componentType":5126,"count":70,"max":[0.9749279022216797,1,1],"min":[-0.9749279022216797,-1,-0.9009688496589661],"type":"VEC3"},{"bufferView":30,"componentType":5126,"count":70,"max":[0.59375,0.59375],"min":[0.014343749731779099,0],"type":"VEC2"},{"bufferView":31,"componentType":5123,"count":84,"max":[69],"min":[0],"type":"SCALAR"},{"bufferView":32,"componentType":5126,"count":70,"max":[0.375,0.550000011920929,0.34752094745635986],"min":[-0.375,0.44999998807907104,-0.40247905254364014],"type":"VEC3"},{"bufferView":33,"componentType":5126,"count":70,"max":[0.9761252999305725,1,1],"min":[-0.9761252999305725,-1,-0.8965831398963928],"type":"VEC3"},{"bufferView":34,"componentType":5126,"count":70,"max":[0.62109375,0.59375],"min":[0.09375,0.4453125],"type":"VEC2"},{"bufferView":35,"componentType":5123,"count":84,"max":[69],"min":[0],"type":"SCALAR"},{"bufferView":36,"componentType":5126,"count":24,"max":[0.25,1,0.25],"min":[-0.25,-1,-0.25],"type":"VEC3"},{"bufferView":37,"componentType":5126,"count":24,"max":[1,1,1],"min":[-1,-1,-1],"type":"VEC3"},{"bufferView":38,"componentType":5126,"count":24,"max":[0.3125,0.3125],"min":[0,0],"type":"VEC2"},{"bufferView":39,"componentType":5123,"count":36,"max":[23],"min":[0],"type":"SCALAR"},{"bufferView":40,"componentType":5126,"count":24,"max":[0.25,1,0.25],"min":[-0.25,-1,-0.25],"type":"VEC3"},{"bufferView":41,"componentType":5126,"count":24,"max":[1,1,1],"min":[-1,-1,-1],"type":"VEC3"},{"bufferView":42,"componentType":5126,"count":24,"max":[0.0625,0.0625],"min":[0,0],"type":"VEC2"},{"bufferView":43,"componentType":5123,"count":36,"max":[23],"min":[0],"type":"SCALAR"},{"bufferView":44,"componentType":5126,"count":4,"max":[8,0,8],"min":[-8,0,-8],"type":"VEC3"},{"bufferView":45,"componentType":5126,"count":4,"max":[0,1,0],"min":[0,1,0],"type":"VEC3"},{"bufferView":46,"componentType":5126,"count":4,"max":[1,1],"min":[0,0],"type":"VEC2"},{"bufferView":47,"componentType":5123,"count":6,"max":[3],"min":[0],"type":"SCALAR"},{"bufferView":48,"componentType":5126,"count":4,"max":[8,0,8],"min":[-8,0,-8],"type":"VEC3"},{"bufferView":49,"componentType":5126,"count":4,"max":[0,1,0],"min":[0,1,0],"type":"VEC3"},{"bufferView":50,"componentType":5126,"count":4,"max":[1,1],"min":[0,0],"type":"VEC2"},{"bufferView":51,"componentType":5123,"count":6,"max":[3],"min":[0],"type":"SCALAR"},{"bufferView":52,"componentType":5126,"count":4,"max":[8,0,8],"min":[-8,0,-8],"type":"VEC3"},{"bufferView":53,"componentType":5126,"count":4,"max":[0,1,0],"min":[0,1,0],"type":"VEC3"},{"bufferView":54,"componentType":5126,"count":4,"max":[1,1],"min":[0,0],"type":"VEC2"},{"bufferView":55,"componentType":5123,"count":6,"max":[3],"min":[0],"type":"SCALAR"},{"bufferView":56,"componentType":5126,"count":4,"max":[8,0,8],"min":[-8,0,-8],"type":"VEC3"},{"bufferView":57,"componentType":5126,"count":4,"max":[0,1,0],"min":[0,1,0],"type":"VEC3"},{"bufferView":58,"componentType":5126,"count":4,"max":[1,1],"min":[0,0],"type":"VEC2"},{"bufferView":59,"componentType":5123,"count":6,"max":[3],"min":[0],"type":"SCALAR"},{"bufferView":60,"componentType":5126,"count":4,"max":[8,0,8],"min":[-8,0,-8],"type":"VEC3"},{"bufferView":61,"componentType":5126,"count":4,"max":[0,1,0],"min":[0,1,0],"type":"VEC3"},{"bufferView":62,"componentType":5126,"count":4,"max":[1,1],"min":[0,0],"type":"VEC2"},{"bufferView":63,"componentType":5123,"count":6,"max":[3],"min":[0],"type":"SCALAR"},{"bufferView":64,"componentType":5126,"count":4,"max":[8,0,8],"min":[-8,0,-8],"type":"VEC3"},{"bufferView":65,"componentType":5126,"count":4,"max":[0,1,0],"min":[0,1,0],"type":"VEC3"},{"bufferView":66,"componentType":5126,"count":4,"max":[1,1],"min":[0,0],"type":"VEC2"},{"bufferView":67,"componentType":5123,"count":6,"max":[3],"min":[0],"type":"SCALAR"},{"bufferView":68,"componentType":5126,"count":4,"max":[8,0,8],"min":[-8,0,-8],"type":"VEC3"},{"bufferView":69,"componentType":5126,"count":4,"max":[0,1,0],"min":[0,1,0],"type":"VEC3"},{"bufferView":70,"componentType":5126,"count":4,"max":[1,1],"min":[0,0],"type":"VEC2"},{"bufferView":71,"componentType":5123,"count":6,"max":[3],"min":[0],"type":"SCALAR"},{"bufferView":72,"componentType":5126,"count":4,"max":[8,0,8],"min":[-8,0,-8],"type":"VEC3"},{"bufferView":73,"componentType":5126,"count":4,"max":[0,1,0],"min":[0,1,0],"type":"VEC3"},{"bufferView":74,"componentType":5126,"count":4,"max":[1,1],"min":[0,0],"type":"VEC2"},{"bufferView":75,"componentType":5123,"count":6,"max":[3],"min":[0],"type":"SCALAR"}],"materials":[{"pbrMetallicRoughness":{"metallicFactor":0,"roughnessFactor":1,"baseColorTexture":{"index":0}},"alphaMode":"MASK","alphaCutoff":0.05,"doubleSided":true},{"pbrMetallicRoughness":{"metallicFactor":0,"roughnessFactor":1,"baseColorTexture":{"index":1}},"alphaMode":"MASK","alphaCutoff":0.05,"doubleSided":true},{"pbrMetallicRoughness":{"metallicFactor":0,"roughnessFactor":1,"baseColorTexture":{"index":2}},"alphaMode":"MASK","alphaCutoff":0.05,"doubleSided":true},{"pbrMetallicRoughness":{"metallicFactor":0,"roughnessFactor":1,"baseColorTexture":{"index":3}},"alphaMode":"MASK","alphaCutoff":0.05,"doubleSided":true},{"pbrMetallicRoughness":{"metallicFactor":0,"roughnessFactor":1,"baseColorTexture":{"index":4}},"alphaMode":"MASK","alphaCutoff":0.05,"doubleSided":true},{"pbrMetallicRoughness":{"metallicFactor":0,"roughnessFactor":1,"baseColorTexture":{"index":5}},"alphaMode":"MASK","alphaCutoff":0.05,"doubleSided":true}],"textures":[{"sampler":0,"source":0,"name":"block.png"},{"sampler":1,"source":1,"name":"texture.png"},{"sampler":2,"source":2,"name":"pyramid.png"},{"sampler":3,"source":3,"name":"ball.png"},{"sampler":4,"source":4,"name":"pokeball.png"},{"sampler":5,"source":5,"name":"cross.png"}],"samplers":[{"magFilter":9728,"minFilter":9728,"wrapS":33071,"wrapT":33071},{"magFilter":9728,"minFilter":9728,"wrapS":33071,"wrapT":33071},{"magFilter":9728,"minFilter":9728,"wrapS":33071,"wrapT":33071},{"magFilter":9728,"minFilter":9728,"wrapS":33071,"wrapT":33071},{"magFilter":9728,"minFilter":9728,"wrapS":33071,"wrapT":33071},{"magFilter":9728,"minFilter":9728,"wrapS":33071,"wrapT":33071}],"images":[{"mimeType":"image/png","uri":"data:image/png;base64,"},{"mimeType":"image/png","uri":"data:image/png;base64,"},{"mimeType":"image/png","uri":"data:image/png;base64,"},{"mimeType":"image/png","uri":"data:image/png;base64,"},{"mimeType":"image/png","uri":"data:image/png;base64,"},{"mimeType":"image/png","uri":"data:image/png;base64,"}],"meshes":[{"primitives":[{"mode":4,"attributes":{"POSITION":0,"NORMAL":1,"TEXCOORD_0":2},"indices":3,"material":0}]},{"primitives":[{"mode":4,"attributes":{"POSITION":4,"NORMAL":5,"TEXCOORD_0":6},"indices":7,"material":1}]},{"primitives":[{"mode":4,"attributes":{"POSITION":8,"NORMAL":9,"TEXCOORD_0":10},"indices":11,"material":2}]},{"primitives":[{"mode":4,"attributes":{"POSITION":12,"NORMAL":13,"TEXCOORD_0":14},"indices":15,"material":3}]},{"primitives":[{"mode":4,"attributes":{"POSITION":16,"NORMAL":17,"TEXCOORD_0":18},"indices":19,"material":4}]},{"primitives":[{"mode":4,"attributes":{"POSITION":20,"NORMAL":21,"TEXCOORD_0":22},"indices":23,"material":4}]},{"primitives":[{"mode":4,"attributes":{"POSITION":24,"NORMAL":25,"TEXCOORD_0":26},"indices":27,"material":4}]},{"primitives":[{"mode":4,"attributes":{"POSITION":28,"NORMAL":29,"TEXCOORD_0":30},"indices":31,"material":4}]},{"primitives":[{"mode":4,"attributes":{"POSITION":32,"NORMAL":33,"TEXCOORD_0":34},"indices":35,"material":4}]},{"primitives":[{"mode":4,"attributes":{"POSITION":36,"NORMAL":37,"TEXCOORD_0":38},"indices":39,"material":5}]},{"primitives":[{"mode":4,"attributes":{"POSITION":40,"NORMAL":41,"TEXCOORD_0":42},"indices":43,"material":5}]},{"primitives":[{"mode":4,"attributes":{"POSITION":44,"NORMAL":45,"TEXCOORD_0":46},"indices":47,"material":1}]},{"primitives":[{"mode":4,"attributes":{"POSITION":48,"NORMAL":49,"TEXCOORD_0":50},"indices":51,"material":1}]},{"primitives":[{"mode":4,"attributes":{"POSITION":52,"NORMAL":53,"TEXCOORD_0":54},"indices":55,"material":1}]},{"primitives":[{"mode":4,"attributes":{"POSITION":56,"NORMAL":57,"TEXCOORD_0":58},"indices":59,"material":1}]},{"primitives":[{"mode":4,"attributes":{"POSITION":60,"NORMAL":61,"TEXCOORD_0":62},"indices":63,"material":1}]},{"primitives":[{"mode":4,"attributes":{"POSITION":64,"NORMAL":65,"TEXCOORD_0":66},"indices":67,"material":1}]},{"primitives":[{"mode":4,"attributes":{"POSITION":68,"NORMAL":69,"TEXCOORD_0":70},"indices":71,"material":1}]},{"primitives":[{"mode":4,"attributes":{"POSITION":72,"NORMAL":73,"TEXCOORD_0":74},"indices":75,"material":1}]}]}