{"asset":{"version":"2.0","generator":"Blockbench 4.12.2 glTF exporter"},"scenes":[{"nodes":[13],"name":"blockbench_export"}],"scene":0,"nodes":[{"translation":[0.0625,-0.25,0.65625],"name":"cube","mesh":0},{"name":"floor","mesh":1},{"translation":[-0.09375,-0.21875,-0.34375],"name":"pyramid","mesh":2},{"translation":[0.375,0.03125,-0.125],"name":"sphere","mesh":3},{"translation":[0,0.4375,0],"name":"top","mesh":4},{"translation":[0,0.28125,0],"name":"middle_ring","mesh":5},{"translation":[0,0.3125,0],"name":"bottom","mesh":6},{"rotation":[0.7071067811865475,0,0,0.7071067811865476],"translation":[0,0.3125,0.08750000000000002],"name":"front_button_1","mesh":7},{"rotation":[0.7071067811865475,0,0,0.7071067811865476],"translation":[0,0.3125,0.09375],"name":"front_button_2","mesh":8},{"translation":[0,-0.25,-0.625],"name":"pokeball","children":[4,5,6,7,8]},{"rotation":[0,0,-0.3826834323650898,0.9238795325112867],"translation":[0,-0.006249999999999999,0],"name":"cuboid","mesh":9},{"rotation":[0,0,0.3826834323650898,0.9238795325112867],"translation":[0,-0.006249999999999999,0],"name":"cuboid","mesh":10},{"translation":[0,0.0625,0.40625],"name":"cross","children":[10,11]},{"children":[0,1,2,3,9,12]}],"bufferViews":[{"buffer":0,"byteOffset":0,"byteLength":288,"target":34962,"byteStride":12},{"buffer":0,"byteOffset":288,"byteLength":288,"target":34962,"byteStride":12},{"buffer":0,"byteOffset":576,"byteLength":192,"target":34962,"byteStride":8},{"buffer":0,"byteOffset":768,"byteLength":72,"target":34963},{"buffer":0,"byteOffset":840,"byteLength":48,"target":34962,"byteStride":12},{"buffer":0,"byteOffset":888,"byteLength":48,"target":34962,"byteStride":12},{"buffer":0,"byteOffset":936,"byteLength":32,"target":34962,"byteStride":8},{"buffer":0,"byteOffset":968,"byteLength":12,"target":34963},{"buffer":0,"byteOffset":980,"byteLength":192,"target":34962,"byteStride":12},{"buffer":0,"byteOffset":1172,"byteLength":192,"target":34962,"byteStride":12},{"buffer":0,"byteOffset":1364,"byteLength":128,"target":34962,"byteStride":8},{"buffer":0,"byteOffset":1492,"byteLength":36,"target":34963},{"buffer":0,"byteOffset":1528,"byteLength":3168,"target":34962,"byteStride":12},{"buffer":0,"byteOffset":4696,"byteLength":3168,"target":34962,"byteStride":12},{"buffer":0,"byteOffset":7864,"byteLength":2112,"target":34962,"byteStride":8},{"buffer":0,"byteOffset":9976,"byteLength":720,"target":34963},{"buffer":0,"byteOffset":10696,"byteLength":2616,"target":34962,"byteStride":12},{"buffer":0,"byteOffset":13312,"byteLength":2616,"target":34962,"byteStride":12},{"buffer":0,"byteOffset":15928,"byteLength":1744,"target":34962,"byteStride":8},{"buffer":0,"byteOffset":17672,"byteLength":612,"target":34963},{"buffer":0,"byteOffset":18284,"byteLength":1440,"target":34962,"byteStride":12},{"buffer":0,"byteOffset":19724,"byteLength":1440,"target":34962,"byteStride":12},{"buffer":0,"byteOffset":21164,"byteLength":960,"target":34962,"byteStride":8},{"buffer":0,"byteOffset":22124,"byteLength":288,"target":34963},{"buffer":0,"byteOffset":22412,"byteLength":2616,"target":34962,"byteStride":12},{"buffer":0,"byteOffset":25028,"byteLength":2616,"target":34962,"byteStride":12},{"buffer":0,"byteOffset":27644,"byteLength":1744,"target":34962,"byteStride":8},{"buffer":0,"byteOffset":29388,"byteLength":612,"target":34963},{"buffer":0,"byteOffset":30000,"byteLength":840,"target":34962,"byteStride":12},{"buffer":0,"byteOffset":30840,"byteLength":840,"target":34962,"byteStride":12},{"buffer":0,"byteOffset":31680,"byteLength":560,"target":34962,"byteStride":8},{"buffer":0,"byteOffset":32240,"byteLength":168,"target":34963},{"buffer":0,"byteOffset":32408,"byteLength":840,"target":34962,"byteStride":12},{"buffer":0,"byteOffset":33248,"byteLength":840,"target":34962,"byteStride":12},{"buffer":0,"byteOffset":34088,"byteLength":560,"target":34962,"byteStride":8},{"buffer":0,"byteOffset":34648,"byteLength":168,"target":34963},{"buffer":0,"byteOffset":34816,"byteLength":288,"target":34962,"byteStride":12},{"buffer":0,"byteOffset":35104,"byteLength":288,"target":34962,"byteStride":12},{"buffer":0,"byteOffset":35392,"byteLength":192,"target":34962,"byteStride":8},{"buffer":0,"byteOffset":35584,"byteLength":72,"target":34963},{"buffer":0,"byteOffset":35656,"byteLength":288,"target":34962,"byteStride":12},{"buffer":0,"byteOffset":35944,"byteLength":288,"target":34962,"byteStride":12},{"buffer":0,"byteOffset":36232,"byteLength":192,"target":34962,"byteStride":8},{"buffer":0,"byteOffset":36424,"byteLength":72,"target":34963}],"buffers":[{"byteLength":36496,"uri":"data:application/octet-stream;base64,"}],"accessors":[{"bufferView":0,"componentType":5126,"count":24,"max":[-0.375,0.3125,-0.65625],"min":[-0.4375,0.25,-0.71875],"type":"VEC3"},{"bufferView":1,"componentType":5126,"count":24,"max":[1,1,1],"min":[-1,-1,-1],"type":"VEC3"},{"bufferView":2,"componentType":5126,"count":24,"max":[0.1875,0.1875],"min":[0,0],"type":"VEC2"},{"bufferView":3,"componentType":5123,"count":36,"max":[23],"min":[0],"type":"SCALAR"},{"bufferView":4,"componentType":5126,"count":4,"max":[0.5,0,0.5],"min":[-0.5,0,-0.5],"type":"VEC3"},{"bufferView":5,"componentType":5126,"count":4,"max":[0,1,0],"min":[0,1,0],"type":"VEC3"},{"bufferView":6,"componentType":5126,"count":4,"max":[1,1],"min":[0,0],"type":"VEC2"},{"bufferView":7,"componentType":5123,"count":6,"max":[3],"min":[0],"type":"SCALAR"},{"bufferView":8,"componentType":5126,"count":16,"max":[0.03125,0.28125,0.03125],"min":[-0.03125,0.21875,-0.03125],"type":"VEC3"},{"bufferView":9,"componentType":5126,"count":16,"max":[0.8944271802902222,0.4472135901451111,0.8944271802902222],"min":[-0.8944271802902222,-1,-0.8944271802902222],"type":"VEC3"},{"bufferView":10,"componentType":5126,"count":16,"max":[0.5,0.5],"min":[0,0],"type":"VEC2"},{"bufferView":11,"componentType":5123,"count":18,"max":[15],"min":[0],"type":"SCALAR"},{"bufferView":12,"componentType":5126,"count":264,"max":[0.03125,0.03125,0.03125],"min":[-0.03125,-0.03125,-0.03125],"type":"VEC3"},{"bufferView":13,"componentType":5126,"count":264,"max":[0.9659258127212524,0.9659258127212524,0.9659258127212524],"min":[-0.9659258127212524,-0.9659258127212524,-0.9659258127212524],"type":"VEC3"},{"bufferView":14,"componentType":5126,"count":264,"max":[0.13397499918937683,0.1294124722480774],"min":[0,0],"type":"VEC2"},{"bufferView":15,"componentType":5123,"count":360,"max":[263],"min":[0],"type":"SCALAR"},{"bufferView":16,"componentType":5126,"count":218,"max":[0.125,0,0.12363230437040329],"min":[-0.125,-0.11280988156795502,-0.1263676881790161],"type":"VEC3"},{"bufferView":17,"componentType":5126,"count":218,"max":[0.9928136467933655,1,0.9705321788787842],"min":[-0.9928136467933655,0,-1],"type":"VEC3"},{"bufferView":18,"componentType":5126,"count":218,"max":[0.6875,0.6328125],"min":[0,0],"type":"VEC2"},{"bufferView":19,"componentType":5123,"count":306,"max":[217],"min":[0],"type":"SCALAR"},{"bufferView":20,"componentType":5126,"count":120,"max":[0.1171875,0.046875,0.1171875],"min":[-0.1171875,0.015625,-0.1171875],"type":"VEC3"},{"bufferView":21,"componentType":5126,"count":120,"max":[1,1,1],"min":[-1,-1,-1],"type":"VEC3"},{"bufferView":22,"componentType":5126,"count":120,"max":[0.6408500075340271,0.515625],"min":[0.1091499999165535,0.0078125],"type":"VEC2"},{"bufferView":23,"componentType":5123,"count":144,"max":[119],"min":[0],"type":"SCALAR"},{"bufferView":24,"componentType":5126,"count":218,"max":[0.125,-0.012190116569399834,0.12363230437040329],"min":[-0.125,-0.125,-0.1263676881790161],"type":"VEC3"},{"bufferView":25,"componentType":5126,"count":218,"max":[0.9928136467933655,1,1],"min":[-0.9928136467933655,-0.9754317402839661,-0.9705321788787842],"type":"VEC3"},{"bufferView":26,"componentType":5126,"count":218,"max":[0.53125,0.53125],"min":[0,0.0086326003074646],"type":"VEC2"},{"bufferView":27,"componentType":5123,"count":306,"max":[217],"min":[0],"type":"SCALAR"},{"bufferView":28,"componentType":5126,"count":70,"max":[0.03381526097655296,0.03750000149011612,0.03125],"min":[-0.03381526097655296,0.02500000037252903,-0.03468488156795502],"type":"VEC3"},{"bufferView":29,"componentType":5126,"count":70,"max":[0.9749279022216797,1,1],"min":[-0.9749279022216797,-1,-0.9009688496589661],"type":"VEC3"},{"bufferView":30,"componentType":5126,"count":70,"max":[0.59375,0.59375],"min":[0.014343749731779099,0],"type":"VEC2"},{"bufferView":31,"componentType":5123,"count":84,"max":[69],"min":[0],"type":"SCALAR"},{"bufferView":32,"componentType":5126,"count":70,"max":[0.0234375,0.03437500074505806,0.02172005921602249],"min":[-0.0234375,0.02812499925494194,-0.02515494078397751],"type":"VEC3"},{"bufferView":33,"componentType":5126,"count":70,"max":[0.9761252999305725,1,1],"min":[-0.9761252999305725,-1,-0.8965831398963928],"type":"VEC3"},{"bufferView":34,"componentType":5126,"count":70,"max":[0.62109375,0.59375],"min":[0.09375,0.4453125],"type":"VEC2"},{"bufferView":35,"componentType":5123,"count":84,"max":[69],"min":[0],"type":"SCALAR"},{"bufferView":36,"componentType":5126,"count":24,"max":[0.015625,0.0625,0.015625],"min":[-0.015625,-0.0625,-0.015625],"type":"VEC3"},{"bufferView":37,"componentType":5126,"count":24,"max":[1,1,1],"min":[-1,-1,-1],"type":"VEC3"},{"bufferView":38,"componentType":5126,"count":24,"max":[0.03125,0.03125],"min":[0,0],"type":"VEC2"},{"bufferView":39,"componentType":5123,"count":36,"max":[23],"min":[0],"type":"SCALAR"},{"bufferView":40,"componentType":5126,"count":24,"max":[0.015625,0.0625,0.015625],"min":[-0.015625,-0.0625,-0.015625],"type":"VEC3"},{"bufferView":41,"componentType":5126,"count":24,"max":[1,1,1],"min":[-1,-1,-1],"type":"VEC3"},{"bufferView":42,"componentType":5126,"count":24,"max":[0.03125,0.03125],"min":[0,0],"type":"VEC2"},{"bufferView":43,"componentType":5123,"count":36,"max":[23],"min":[0],"type":"SCALAR"}],"materials":[{"pbrMetallicRoughness":{"metallicFactor":0,"roughnessFactor":1,"baseColorTexture":{"index":0}},"alphaMode":"MASK","alphaCutoff":0.05,"doubleSided":true},{"pbrMetallicRoughness":{"metallicFactor":0,"roughnessFactor":1,"baseColorTexture":{"index":1}},"alphaMode":"MASK","alphaCutoff":0.05,"doubleSided":true},{"pbrMetallicRoughness":{"metallicFactor":0,"roughnessFactor":1},"alphaMode":"MASK","alphaCutoff":0.05,"doubleSided":true},{"pbrMetallicRoughness":{"metallicFactor":0,"roughnessFactor":1},"alphaMode":"MASK","alphaCutoff":0.05,"doubleSided":true},{"pbrMetallicRoughness":{"metallicFactor":0,"roughnessFactor":1,"baseColorTexture":{"index":2}},"alphaMode":"MASK","alphaCutoff":0.05,"doubleSided":true},{"pbrMetallicRoughness":{"metallicFactor":0,"roughnessFactor":1},"alphaMode":"MASK","alphaCutoff":0.05,"doubleSided":true}],"textures":[{"sampler":0,"source":0,"name":"block.png"},{"sampler":1,"source":1,"name":"texture.png"},{"sampler":2,"source":2,"name":"pokeball.png"}],"samplers":[{"magFilter":9728,"minFilter":9728,"wrapS":33071,"wrapT":33071},{"magFilter":9728,"minFilter":9728,"wrapS":33071,"wrapT":33071},{"magFilter":9728,"minFilter":9728,"wrapS":33071,"wrapT":33071}],"images":[{"mimeType":"image/png","uri":"data:image/png;base64,"},{"mimeType":"image/png","uri":"data:image/png;base64,"},{"mimeType":"image/png","uri":"data:image/png;base64,"}],"meshes":[{"primitives":[{"mode":4,"attributes":{"POSITION":0,"NORMAL":1,"TEXCOORD_0":2},"indices":3,"material":0}]},{"primitives":[{"mode":4,"attributes":{"POSITION":4,"NORMAL":5,"TEXCOORD_0":6},"indices":7,"material":1}]},{"primitives":[{"mode":4,"attributes":{"POSITION":8,"NORMAL":9,"TEXCOORD_0":10},"indices":11,"material":2}]},{"primitives":[{"mode":4,"attributes":{"POSITION":12,"NORMAL":13,"TEXCOORD_0":14},"indices":15,"material":3}]},{"primitives":[{"mode":4,"attributes":{"POSITION":16,"NORMAL":17,"TEXCOORD_0":18},"indices":19,"material":4}]},{"primitives":[{"mode":4,"attributes":{"POSITION":20,"NORMAL":21,"TEXCOORD_0":22},"indices":23,"material":4}]},{"primitives":[{"mode":4,"attributes":{"POSITION":24,"NORMAL":25,"TEXCOORD_0":26},"indices":27,"material":4}]},{"primitives":[{"mode":4,"attributes":{"POSITION":28,"NORMAL":29,"TEXCOORD_0":30},"indices":31,"material":4}]},{"primitives":[{"mode":4,"attributes":{"POSITION":32,"NORMAL":33,"TEXCOORD_0":34},"indices":35,"material":4}]},{"primitives":[{"mode":4,"attributes":{"POSITION":36,"NORMAL":37,"TEXCOORD_0":38},"indices":39,"material":5}]},{"primitives":[{"mode":4,"attributes":{"POSITION":40,"NORMAL":41,"TEXCOORD_0":42},"indices":43,"material":5}]}]}