{"asset":{"version":"2.0","generator":"Blockbench 4.12.2 glTF exporter"},"scenes":[{"nodes":[0,1,2,3,5,7],"name":"blockbench_export"}],"scene":0,"nodes":[{"translation":[-13,-4,10.5],"name":"cube","mesh":0},{"name":"floor","mesh":1},{"translation":[-5.5,-3.5,-17.5],"name":"pyramid","mesh":2},{"translation":[17,0.5,-2],"name":"sphere","mesh":3},{"name":"pokeball"},{"translation":[0,-3,-10],"name":"pokeball","mesh":4,"children":[4],"skin":0},{"name":"cross"},{"translation":[4,1,17.5],"name":"cross","mesh":5,"children":[6],"skin":1}],"bufferViews":[{"buffer":0,"byteOffset":0,"byteLength":288,"target":34962,"byteStride":12},{"buffer":0,"byteOffset":288,"byteLength":288,"target":34962,"byteStride":12},{"buffer":0,"byteOffset":576,"byteLength":192,"target":34962,"byteStride":8},{"buffer":0,"byteOffset":768,"byteLength":72,"target":34963},{"buffer":0,"byteOffset":840,"byteLength":48,"target":34962,"byteStride":12},{"buffer":0,"byteOffset":888,"byteLength":48,"target":34962,"byteStride":12},{"buffer":0,"byteOffset":936,"byteLength":32,"target":34962,"byteStride":8},{"buffer":0,"byteOffset":968,"byteLength":12,"target":34963},{"buffer":0,"byteOffset":980,"byteLength":192,"target":34962,"byteStride":12},{"buffer":0,"byteOffset":1172,"byteLength":192,"target":34962,"byteStride":12},{"buffer":0,"byteOffset":1364,"byteLength":128,"target":34962,"byteStride":8},{"buffer":0,"byteOffset":1492,"byteLength":36,"target":34963},{"buffer":0,"byteOffset":1528,"byteLength":3168,"target":34962,"byteStride":12},{"buffer":0,"byteOffset":4696,"byteLength":3168,"target":34962,"byteStride":12},{"buffer":0,"byteOffset":7864,"byteLength":2112,"target":34962,"byteStride":8},{"buffer":0,"byteOffset":9976,"byteLength":720,"target":34963},{"buffer":0,"byteOffset":10696,"byteLength":8352,"target":34962,"byteStride":12},{"buffer":0,"byteOffset":19048,"byteLength":8352,"target":34962,"byteStride":12},{"buffer":0,"byteOffset":27400,"byteLength":5568,"target":34962,"byteStride":8},{"buffer":0,"byteOffset":32968,"byteLength":5568,"target":34962,"byteStride":8},{"buffer":0,"byteOffset":38536,"byteLength":11136,"target":34962,"byteStride":16},{"buffer":0,"byteOffset":49672,"byteLength":1848,"target":34963},{"buffer":0,"byteOffset":51520,"byteLength":576,"target":34962,"byteStride":12},{"buffer":0,"byteOffset":52096,"byteLength":576,"target":34962,"byteStride":12},{"buffer":0,"byteOffset":52672,"byteLength":384,"target":34962,"byteStride":8},{"buffer":0,"byteOffset":53056,"byteLength":384,"target":34962,"byteStride":8},{"buffer":0,"byteOffset":53440,"byteLength":768,"target":34962,"byteStride":16},{"buffer":0,"byteOffset":54208,"byteLength":144,"target":34963},{"buffer":0,"byteOffset":54352,"byteLength":64},{"buffer":0,"byteOffset":54416,"byteLength":64}],"buffers":[{"byteLength":54480,"uri":"data:application/octet-stream;base64,"}],"accessors":[{"bufferView":0,"componentType":5126,"count":24,"max":[-6,5,-10.5],"min":[-7,4,-11.5],"type":"VEC3"},{"bufferView":1,"componentType":5126,"count":24,"max":[1,1,1],"min":[-1,-1,-1],"type":"VEC3"},{"bufferView":2,"componentType":5126,"count":24,"max":[0.1875,0.1875],"min":[0,0],"type":"VEC2"},{"bufferView":3,"componentType":5123,"count":36,"max":[23],"min":[0],"type":"SCALAR"},{"bufferView":4,"componentType":5126,"count":4,"max":[24,0,24],"min":[-24,0,-24],"type":"VEC3"},{"bufferView":5,"componentType":5126,"count":4,"max":[0,1,0],"min":[0,1,0],"type":"VEC3"},{"bufferView":6,"componentType":5126,"count":4,"max":[1,1],"min":[0,0],"type":"VEC2"},{"bufferView":7,"componentType":5123,"count":6,"max":[3],"min":[0],"type":"SCALAR"},{"bufferView":8,"componentType":5126,"count":16,"max":[0.5,4.5,0.5],"min":[-0.5,3.5,-0.5],"type":"VEC3"},{"bufferView":9,"componentType":5126,"count":16,"max":[0.8944271802902222,0.4472135901451111,0.8944271802902222],"min":[-0.8944271802902222,-1,-0.8944271802902222],"type":"VEC3"},{"bufferView":10,"componentType":5126,"count":16,"max":[0.3125,0.2640446424484253],"min":[0.0027229280676692724,0],"type":"VEC2"},{"bufferView":11,"componentType":5123,"count":18,"max":[15],"min":[0],"type":"SCALAR"},{"bufferView":12,"componentType":5126,"count":264,"max":[0.5,0.5,0.5],"min":[-0.5,-0.5,-0.5],"type":"VEC3"},{"bufferView":13,"componentType":5126,"count":264,"max":[0.9659258127212524,0.9659258127212524,0.9659258127212524],"min":[-0.9659258127212524,-0.9659258127212524,-0.9659258127212524],"type":"VEC3"},{"bufferView":14,"componentType":5126,"count":264,"max":[0.35100001096725464,0.3125],"min":[0.00516127422451973,0],"type":"VEC2"},{"bufferView":15,"componentType":5123,"count":360,"max":[263],"min":[0],"type":"SCALAR"},{"bufferView":16,"componentType":5126,"count":696,"max":[2,7,2.049999952316284],"min":[-2,3,-2.021883010864258],"type":"VEC3"},{"bufferView":17,"componentType":5126,"count":696,"max":[1,1,1],"min":[-1,-1,-1],"type":"VEC3"},{"bufferView":18,"componentType":5126,"count":696,"max":[0.6875,0.6328125],"min":[0,0],"type":"VEC2"},{"bufferView":19,"componentType":5123,"count":696,"max":[0,0,0,0],"min":[0,0,0,0],"type":"VEC4"},{"bufferView":20,"componentType":5126,"count":696,"max":[0,1,0,0],"min":[0,1,0,0],"type":"VEC4"},{"bufferView":21,"componentType":5123,"count":924,"max":[695],"min":[0],"type":"SCALAR"},{"bufferView":22,"componentType":5126,"count":48,"max":[0.8838834762573242,0.7838834524154663,0.25],"min":[-0.8838834762573242,-0.9838835000991821,-0.25],"type":"VEC3"},{"bufferView":23,"componentType":5126,"count":48,"max":[0.7071067690849304,0.7071067690849304,1],"min":[-0.7071067690849304,-0.7071067690849304,-1],"type":"VEC3"},{"bufferView":24,"componentType":5126,"count":48,"max":[0.3125,0.3125],"min":[0,0],"type":"VEC2"},{"bufferView":25,"componentType":5123,"count":48,"max":[0,0,0,0],"min":[0,0,0,0],"type":"VEC4"},{"bufferView":26,"componentType":5126,"count":48,"max":[0,1,0,0],"min":[0,1,0,0],"type":"VEC4"},{"bufferView":27,"componentType":5123,"count":72,"max":[47],"min":[0],"type":"SCALAR"},{"bufferView":28,"componentType":5126,"count":1,"max":[1,0,0,0,0,1,0,0,0,0,1,0,0,0,0,1],"min":[1,0,0,0,0,1,0,0,0,0,1,0,0,0,0,1],"type":"MAT4"},{"bufferView":29,"componentType":5126,"count":1,"max":[1,0,0,0,0,1,0,0,0,0,1,0,0,0,0,1],"min":[1,0,0,0,0,1,0,0,0,0,1,0,0,0,0,1],"type":"MAT4"}],"materials":[{"pbrMetallicRoughness":{"metallicFactor":0,"roughnessFactor":1,"baseColorTexture":{"index":0}},"alphaMode":"MASK","alphaCutoff":0.05,"doubleSided":true},{"pbrMetallicRoughness":{"metallicFactor":0,"roughnessFactor":1,"baseColorTexture":{"index":1}},"alphaMode":"MASK","alphaCutoff":0.05,"doubleSided":true},{"pbrMetallicRoughness":{"metallicFactor":0,"roughnessFactor":1,"baseColorTexture":{"index":2}},"alphaMode":"MASK","alphaCutoff":0.05,"doubleSided":true},{"pbrMetallicRoughness":{"metallicFactor":0,"roughnessFactor":1,"baseColorTexture":{"index":3}},"alphaMode":"MASK","alphaCutoff":0.05,"doubleSided":true},{"pbrMetallicRoughness":{"metallicFactor":0,"roughnessFactor":1,"baseColorTexture":{"index":4}},"alphaMode":"MASK","alphaCutoff":0.05,"doubleSided":true},{"pbrMetallicRoughness":{"metallicFactor":0,"roughnessFactor":1,"baseColorTexture":{"index":5}},"alphaMode":"MASK","alphaCutoff":0.05,"doubleSided":true}],"textures":[{"sampler":0,"source":0,"name":"block.png"},{"sampler":1,"source":1,"name":"texture.png"},{"sampler":2,"source":2,"name":"texture"},{"sampler":3,"source":3,"name":"ball"},{"sampler":4,"source":4,"name":"pokeball.png"},{"sampler":5,"source":5,"name":"cross"}],"samplers":[{"magFilter":9728,"minFilter":9728,"wrapS":33071,"wrapT":33071},{"magFilter":9728,"minFilter":9728,"wrapS":33071,"wrapT":33071},{"magFilter":9728,"minFilter":9728,"wrapS":33071,"wrapT":33071},{"magFilter":9728,"minFilter":9728,"wrapS":33071,"wrapT":33071},{"magFilter":9728,"minFilter":9728,"wrapS":33071,"wrapT":33071},{"magFilter":9728,"minFilter":9728,"wrapS":33071,"wrapT":33071}],"images":[{"mimeType":"image/png","uri":"data:image/png;base64,"},{"mimeType":"image/png","uri":"data:image/png;base64,"},{"mimeType":"image/png","uri":"data:image/png;base64,"},{"mimeType":"image/png","uri":"data:image/png;base64,"},{"mimeType":"image/png","uri":"data:image/png;base64,"},{"mimeType":"image/png","uri":"data:image/png;base64,"}],"meshes":[{"primitives":[{"mode":4,"attributes":{"POSITION":0,"NORMAL":1,"TEXCOORD_0":2},"indices":3,"material":0}]},{"primitives":[{"mode":4,"attributes":{"POSITION":4,"NORMAL":5,"TEXCOORD_0":6},"indices":7,"material":1}]},{"primitives":[{"mode":4,"attributes":{"POSITION":8,"NORMAL":9,"TEXCOORD_0":10},"indices":11,"material":2}]},{"primitives":[{"mode":4,"attributes":{"POSITION":12,"NORMAL":13,"TEXCOORD_0":14},"indices":15,"material":3}]},{"primitives":[{"mode":4,"attributes":{"POSITION":16,"NORMAL":17,"TEXCOORD_0":18,"JOINTS_0":19,"WEIGHTS_0":20},"indices":21,"material":4}]},{"primitives":[{"mode":4,"attributes":{"POSITION":22,"NORMAL":23,"TEXCOORD_0":24,"JOINTS_0":25,"WEIGHTS_0":26},"indices":27,"material":5}]}],"skins":[{"inverseBindMatrices":28,"joints":[4],"skeleton":4},{"inverseBindMatrices":29,"joints":[6],"skeleton":6}]}