{
	"asset":{
		"generator":"Khronos glTF Blender I/O v3.6.27",
		"version":"2.0"
	},
	"scene":0,
	"scenes":[
		{
			"name":"Scene",
			"nodes":[
				0
			]
		}
	],
	"nodes":[
		{
			"mesh":0,
			"name":"Grid",
			"scale":[
				1024,
				1,
				1024
			],
			"translation":[
				-215.70999145507812,
				0,
				0
			]
		}
	],
	"materials":[
		{
			"doubleSided":true,
			"name":"Grass",
			"pbrMetallicRoughness":{
				"baseColorFactor":[
					0.130719393491745,
					0.8000000715255737,
					0.47250303626060486,
					1
				],
				"metallicFactor":0,
				"roughnessFactor":0.5
			}
		}
	],
	"meshes":[
		{
			"name":"Grid",
			"primitives":[
				{
					"attributes":{
						"POSITION":0,
						"NORMAL":1,
						"TEXCOORD_0":2,
						"TANGENT":3
					},
					"indices":4,
					"material":0
				}
			]
		}
	],
	"accessors":[
		{
			"bufferView":0,
			"componentType":5126,
			"count":8724,
			"max":[
				0.5,
				113.5468978881836,
				0.5
			],
			"min":[
				0,
				-17.28997230529785,
				-0.5
			],
			"type":"VEC3"
		},
		{
			"bufferView":1,
			"componentType":5126,
			"count":8724,
			"type":"VEC3"
		},
		{
			"bufferView":2,
			"componentType":5126,
			"count":8724,
			"type":"VEC2"
		},
		{
			"bufferView":3,
			"componentType":5126,
			"count":8724,
			"type":"VEC4"
		},
		{
			"bufferView":4,
			"componentType":5123,
			"count":12288,
			"type":"SCALAR"
		}
	],
	"bufferViews":[
		{
			"buffer":0,
			"byteLength":104688,
			"byteOffset":0,
			"target":34962
		},
		{
			"buffer":0,
			"byteLength":104688,
			"byteOffset":104688,
			"target":34962
		},
		{
			"buffer":0,
			"byteLength":69792,
			"byteOffset":209376,
			"target":34962
		},
		{
			"buffer":0,
			"byteLength":139584,
			"byteOffset":279168,
			"target":34962
		},
		{
			"buffer":0,
			"byteLength":24576,
			"byteOffset":418752,
			"target":34963
		}
	],
	"buffers":[
		{
			"byteLength":443328,
			"uri":"data:application/octet-stream;base64,"
		}
	]
}
