{
	"asset":{
		"generator":"Khronos glTF Blender I/O v3.6.27",
		"version":"2.0"
	},
	"scene":0,
	"scenes":[
		{
			"name":"Scene",
			"nodes":[
				0,
				1,
				2,
				3,
				4,
				5
			]
		}
	],
	"nodes":[
		{
			"name":"Plane.001"
		},
		{
			"name":"Heightfield.001"
		},
		{
			"mesh":0,
			"name":"Grid.001",
			"scale":[
				16,
				1,
				16
			],
			"translation":[
				-4,
				0,
				0
			]
		},
		{
			"name":"Plane"
		},
		{
			"name":"Heightfield"
		},
		{
			"mesh":1,
			"name":"Grid",
			"scale":[
				1024,
				1,
				1024
			],
			"translation":[
				-215.70999145507812,
				0,
				0
			]
		}
	],
	"materials":[
		{
			"doubleSided":true,
			"name":"Grass",
			"pbrMetallicRoughness":{
				"baseColorFactor":[
					0.130719393491745,
					0.8000000715255737,
					0.47250303626060486,
					1
				],
				"metallicFactor":0,
				"roughnessFactor":0.5
			}
		}
	],
	"meshes":[
		{
			"name":"Grid.001",
			"primitives":[
				{
					"attributes":{
						"POSITION":0,
						"NORMAL":1,
						"TEXCOORD_0":2
					},
					"indices":3
				}
			]
		},
		{
			"name":"Grid",
			"primitives":[
				{
					"attributes":{
						"POSITION":4,
						"NORMAL":5,
						"TEXCOORD_0":6
					},
					"indices":7,
					"material":0
				}
			]
		}
	],
	"accessors":[
		{
			"bufferView":0,
			"componentType":5126,
			"count":2145,
			"max":[
				0.5,
				0,
				0.5
			],
			"min":[
				0,
				0,
				-0.5
			],
			"type":"VEC3"
		},
		{
			"bufferView":1,
			"componentType":5126,
			"count":2145,
			"type":"VEC3"
		},
		{
			"bufferView":2,
			"componentType":5126,
			"count":2145,
			"type":"VEC2"
		},
		{
			"bufferView":3,
			"componentType":5123,
			"count":12288,
			"type":"SCALAR"
		},
		{
			"bufferView":4,
			"componentType":5126,
			"count":8432,
			"max":[
				0.5,
				113.5468978881836,
				0.5
			],
			"min":[
				0,
				-17.28997230529785,
				-0.5
			],
			"type":"VEC3"
		},
		{
			"bufferView":5,
			"componentType":5126,
			"count":8432,
			"type":"VEC3"
		},
		{
			"bufferView":6,
			"componentType":5126,
			"count":8432,
			"type":"VEC2"
		},
		{
			"bufferView":7,
			"componentType":5123,
			"count":12288,
			"type":"SCALAR"
		}
	],
	"bufferViews":[
		{
			"buffer":0,
			"byteLength":25740,
			"byteOffset":0,
			"target":34962
		},
		{
			"buffer":0,
			"byteLength":25740,
			"byteOffset":25740,
			"target":34962
		},
		{
			"buffer":0,
			"byteLength":17160,
			"byteOffset":51480,
			"target":34962
		},
		{
			"buffer":0,
			"byteLength":24576,
			"byteOffset":68640,
			"target":34963
		},
		{
			"buffer":0,
			"byteLength":101184,
			"byteOffset":93216,
			"target":34962
		},
		{
			"buffer":0,
			"byteLength":101184,
			"byteOffset":194400,
			"target":34962
		},
		{
			"buffer":0,
			"byteLength":67456,
			"byteOffset":295584,
			"target":34962
		},
		{
			"buffer":0,
			"byteLength":24576,
			"byteOffset":363040,
			"target":34963
		}
	],
	"buffers":[
		{
			"byteLength":387616,
			"uri":"data:application/octet-stream;base64,"
		}
	]
}
