{
	"asset":{
		"generator":"Khronos glTF Blender I/O v3.6.27",
		"version":"2.0"
	},
	"scene":0,
	"scenes":[
		{
			"name":"Scene",
			"nodes":[
				0,
				1,
				2,
				3,
				4
			]
		}
	],
	"nodes":[
		{
			"name":"Plane.001"
		},
		{
			"name":"Heightfield.001"
		},
		{
			"mesh":0,
			"name":"Grid.001",
			"scale":[
				16,
				1,
				16
			],
			"translation":[
				-4,
				0,
				0
			]
		},
		{
			"name":"Plane"
		},
		{
			"name":"Heightfield"
		}
	],
	"meshes":[
		{
			"name":"Grid.001",
			"primitives":[
				{
					"attributes":{
						"POSITION":0,
						"NORMAL":1,
						"TEXCOORD_0":2
					},
					"indices":3
				}
			]
		}
	],
	"accessors":[
		{
			"bufferView":0,
			"componentType":5126,
			"count":2145,
			"max":[
				0.5,
				0,
				0.5
			],
			"min":[
				0,
				0,
				-0.5
			],
			"type":"VEC3"
		},
		{
			"bufferView":1,
			"componentType":5126,
			"count":2145,
			"type":"VEC3"
		},
		{
			"bufferView":2,
			"componentType":5126,
			"count":2145,
			"type":"VEC2"
		},
		{
			"bufferView":3,
			"componentType":5123,
			"count":12288,
			"type":"SCALAR"
		}
	],
	"bufferViews":[
		{
			"buffer":0,
			"byteLength":25740,
			"byteOffset":0,
			"target":34962
		},
		{
			"buffer":0,
			"byteLength":25740,
			"byteOffset":25740,
			"target":34962
		},
		{
			"buffer":0,
			"byteLength":17160,
			"byteOffset":51480,
			"target":34962
		},
		{
			"buffer":0,
			"byteLength":24576,
			"byteOffset":68640,
			"target":34963
		}
	],
	"buffers":[
		{
			"byteLength":93216,
			"uri":"data:application/octet-stream;base64,"
		}
	]
}
