{"asset":{"version":"2.0","generator":"Blockbench 4.12.3 glTF exporter"},"scenes":[{"nodes":[7],"name":"blockbench_export"}],"scene":0,"nodes":[{"translation":[1,0,3],"name":"left_leg"},{"translation":[9,0,3],"name":"right_leg"},{"translation":[-5,8,0],"name":"left_arm"},{"translation":[5,8,0],"name":"right arm"},{"translation":[0,11,0],"name":"head"},{"translation":[5,6,3],"name":"upper_body","children":[2,3,4]},{"name":"Avatar","children":[0,1,5]},{"translation":[-5,13,-3],"name":"Avatar","mesh":0,"children":[6],"skin":0}],"bufferViews":[{"buffer":0,"byteOffset":0,"byteLength":5184,"target":34962,"byteStride":12},{"buffer":0,"byteOffset":5184,"byteLength":5184,"target":34962,"byteStride":12},{"buffer":0,"byteOffset":10368,"byteLength":3456,"target":34962,"byteStride":8},{"buffer":0,"byteOffset":13824,"byteLength":3456,"target":34962,"byteStride":8},{"buffer":0,"byteOffset":17280,"byteLength":6912,"target":34962,"byteStride":16},{"buffer":0,"byteOffset":24192,"byteLength":72,"target":34963},{"buffer":0,"byteOffset":24264,"byteLength":72,"target":34963},{"buffer":0,"byteOffset":24336,"byteLength":72,"target":34963},{"buffer":0,"byteOffset":24408,"byteLength":72,"target":34963},{"buffer":0,"byteOffset":24480,"byteLength":72,"target":34963},{"buffer":0,"byteOffset":24552,"byteLength":72,"target":34963},{"buffer":0,"byteOffset":24624,"byteLength":72,"target":34963},{"buffer":0,"byteOffset":24696,"byteLength":72,"target":34963},{"buffer":0,"byteOffset":24768,"byteLength":72,"target":34963},{"buffer":0,"byteOffset":24840,"byteLength":144,"target":34963},{"buffer":0,"byteOffset":24984,"byteLength":72,"target":34963},{"buffer":0,"byteOffset":25056,"byteLength":72,"target":34963},{"buffer":0,"byteOffset":25128,"byteLength":72,"target":34963},{"buffer":0,"byteOffset":25200,"byteLength":72,"target":34963},{"buffer":0,"byteOffset":25272,"byteLength":216,"target":34963},{"buffer":0,"byteOffset":25488,"byteLength":448},{"buffer":0,"byteOffset":25936,"byteLength":12},{"buffer":0,"byteOffset":25948,"byteLength":48},{"buffer":0,"byteOffset":25996,"byteLength":12},{"buffer":0,"byteOffset":26008,"byteLength":48},{"buffer":0,"byteOffset":26056,"byteLength":12},{"buffer":0,"byteOffset":26068,"byteLength":48}],"buffers":[{"byteLength":26116,"uri":"data:application/octet-stream;base64,"}],"accessors":[{"bufferView":0,"componentType":5126,"count":432,"max":[24,25,7],"min":[-14,-13,-1],"type":"VEC3"},{"bufferView":1,"componentType":5126,"count":432,"max":[1,1,1],"min":[-1,-1,-1],"type":"VEC3"},{"bufferView":2,"componentType":5126,"count":432,"max":[0.75,0.6875],"min":[0,0],"type":"VEC2"},{"bufferView":3,"componentType":5123,"count":432,"max":[0,6,0,0],"min":[0,0,0,0],"type":"VEC4"},{"bufferView":4,"componentType":5126,"count":432,"max":[0,1,0,0],"min":[0,1,0,0],"type":"VEC4"},{"bufferView":5,"componentType":5123,"count":36,"max":[23],"min":[0],"type":"SCALAR"},{"bufferView":6,"componentType":5123,"count":36,"max":[47],"min":[24],"type":"SCALAR"},{"bufferView":7,"componentType":5123,"count":36,"max":[71],"min":[48],"type":"SCALAR"},{"bufferView":8,"componentType":5123,"count":36,"max":[95],"min":[72],"type":"SCALAR"},{"bufferView":9,"componentType":5123,"count":36,"max":[119],"min":[96],"type":"SCALAR"},{"bufferView":10,"componentType":5123,"count":36,"max":[143],"min":[120],"type":"SCALAR"},{"bufferView":11,"componentType":5123,"count":36,"max":[167],"min":[144],"type":"SCALAR"},{"bufferView":12,"componentType":5123,"count":36,"max":[191],"min":[168],"type":"SCALAR"},{"bufferView":13,"componentType":5123,"count":36,"max":[215],"min":[192],"type":"SCALAR"},{"bufferView":14,"componentType":5123,"count":72,"max":[263],"min":[216],"type":"SCALAR"},{"bufferView":15,"componentType":5123,"count":36,"max":[287],"min":[264],"type":"SCALAR"},{"bufferView":16,"componentType":5123,"count":36,"max":[311],"min":[288],"type":"SCALAR"},{"bufferView":17,"componentType":5123,"count":36,"max":[335],"min":[312],"type":"SCALAR"},{"bufferView":18,"componentType":5123,"count":36,"max":[359],"min":[336],"type":"SCALAR"},{"bufferView":19,"componentType":5123,"count":108,"max":[431],"min":[360],"type":"SCALAR"},{"bufferView":20,"componentType":5126,"count":7,"max":[1,0,0,0,0,1,0,0,0,0,1,0,0,0,0,1],"min":[1,0,0,0,0,1,0,0,0,0,1,0,-10,-17,-3,1],"type":"MAT4"},{"bufferView":21,"componentType":5126,"count":3,"max":[0.6000000238418579],"min":[0],"type":"SCALAR"},{"bufferView":22,"componentType":5126,"count":3,"max":[0,0,0.591309666633606,0.9238795042037964],"min":[0,0,0.3826834261417389,0.8064445853233337],"type":"VEC4"},{"bufferView":23,"componentType":5126,"count":3,"max":[0.6000000238418579],"min":[0],"type":"SCALAR"},{"bufferView":24,"componentType":5126,"count":3,"max":[0,0,-0.4617486000061035,0.8870108127593994],"min":[0,0,-0.6087614297866821,0.7933533191680908],"type":"VEC4"},{"bufferView":25,"componentType":5126,"count":3,"max":[0.6000000238418579],"min":[0],"type":"SCALAR"},{"bufferView":26,"componentType":5126,"count":3,"max":[0.04361938685178757,0,0,0.9990482330322266],"min":[-0.06540312618017197,0,0,0.9978589415550232],"type":"VEC4"}],"materials":[{"pbrMetallicRoughness":{"metallicFactor":0,"roughnessFactor":1},"alphaMode":"MASK","alphaCutoff":0.05,"doubleSided":true},{"pbrMetallicRoughness":{"metallicFactor":0,"roughnessFactor":1},"alphaMode":"MASK","alphaCutoff":0.05,"doubleSided":true},{"pbrMetallicRoughness":{"metallicFactor":0,"roughnessFactor":1},"alphaMode":"MASK","alphaCutoff":0.05,"doubleSided":true},{"pbrMetallicRoughness":{"metallicFactor":0,"roughnessFactor":1},"alphaMode":"MASK","alphaCutoff":0.05,"doubleSided":true},{"pbrMetallicRoughness":{"metallicFactor":0,"roughnessFactor":1},"alphaMode":"MASK","alphaCutoff":0.05,"doubleSided":true},{"pbrMetallicRoughness":{"metallicFactor":0,"roughnessFactor":1},"alphaMode":"MASK","alphaCutoff":0.05,"doubleSided":true},{"pbrMetallicRoughness":{"metallicFactor":0,"roughnessFactor":1},"alphaMode":"MASK","alphaCutoff":0.05,"doubleSided":true},{"pbrMetallicRoughness":{"metallicFactor":0,"roughnessFactor":1},"alphaMode":"MASK","alphaCutoff":0.05,"doubleSided":true}],"meshes":[{"primitives":[{"mode":4,"attributes":{"POSITION":0,"NORMAL":1,"TEXCOORD_0":2,"JOINTS_0":3,"WEIGHTS_0":4},"indices":5,"material":0},{"mode":4,"attributes":{"POSITION":0,"NORMAL":1,"TEXCOORD_0":2,"JOINTS_0":3,"WEIGHTS_0":4},"indices":6,"material":1},{"mode":4,"attributes":{"POSITION":0,"NORMAL":1,"TEXCOORD_0":2,"JOINTS_0":3,"WEIGHTS_0":4},"indices":7,"material":2},{"mode":4,"attributes":{"POSITION":0,"NORMAL":1,"TEXCOORD_0":2,"JOINTS_0":3,"WEIGHTS_0":4},"indices":8,"material":3},{"mode":4,"attributes":{"POSITION":0,"NORMAL":1,"TEXCOORD_0":2,"JOINTS_0":3,"WEIGHTS_0":4},"indices":9,"material":2},{"mode":4,"attributes":{"POSITION":0,"NORMAL":1,"TEXCOORD_0":2,"JOINTS_0":3,"WEIGHTS_0":4},"indices":10,"material":3},{"mode":4,"attributes":{"POSITION":0,"NORMAL":1,"TEXCOORD_0":2,"JOINTS_0":3,"WEIGHTS_0":4},"indices":11,"material":1},{"mode":4,"attributes":{"POSITION":0,"NORMAL":1,"TEXCOORD_0":2,"JOINTS_0":3,"WEIGHTS_0":4},"indices":12,"material":4},{"mode":4,"attributes":{"POSITION":0,"NORMAL":1,"TEXCOORD_0":2,"JOINTS_0":3,"WEIGHTS_0":4},"indices":13,"material":3},{"mode":4,"attributes":{"POSITION":0,"NORMAL":1,"TEXCOORD_0":2,"JOINTS_0":3,"WEIGHTS_0":4},"indices":14,"material":2},{"mode":4,"attributes":{"POSITION":0,"NORMAL":1,"TEXCOORD_0":2,"JOINTS_0":3,"WEIGHTS_0":4},"indices":15,"material":3},{"mode":4,"attributes":{"POSITION":0,"NORMAL":1,"TEXCOORD_0":2,"JOINTS_0":3,"WEIGHTS_0":4},"indices":16,"material":5},{"mode":4,"attributes":{"POSITION":0,"NORMAL":1,"TEXCOORD_0":2,"JOINTS_0":3,"WEIGHTS_0":4},"indices":17,"material":6},{"mode":4,"attributes":{"POSITION":0,"NORMAL":1,"TEXCOORD_0":2,"JOINTS_0":3,"WEIGHTS_0":4},"indices":18,"material":2},{"mode":4,"attributes":{"POSITION":0,"NORMAL":1,"TEXCOORD_0":2,"JOINTS_0":3,"WEIGHTS_0":4},"indices":19,"material":7}]}],"skins":[{"inverseBindMatrices":20,"joints":[6,0,1,5,2,3,4],"skeleton":6}],"animations":[{"name":"idle","samplers":[{"input":21,"output":22,"interpolation":"LINEAR"},{"input":23,"output":24,"interpolation":"LINEAR"},{"input":25,"output":26,"interpolation":"LINEAR"}],"channels":[{"sampler":0,"target":{"node":2,"path":"rotation"}},{"sampler":1,"target":{"node":3,"path":"rotation"}},{"sampler":2,"target":{"node":5,"path":"rotation"}}]}]}