{"asset":{"version":"2.0","generator":"Blockbench 4.12.3 glTF exporter"},"scenes":[{"nodes":[0,1,2,3,4,5,6,7,8,9,10,11,12,13,14,15,16],"name":"blockbench_export"}],"scene":0,"nodes":[{"name":"plane","mesh":0},{"translation":[64,0,68],"name":"cube","mesh":1},{"translation":[64,0,56],"name":"cube","mesh":2},{"translation":[64,0,44],"name":"cube","mesh":3},{"translation":[64,0,80],"name":"cube","mesh":4},{"translation":[64,0,32],"name":"cube","mesh":5},{"translation":[-76,4,-12],"name":"pyramid","mesh":6},{"translation":[-76,8,-40],"name":"pyramid","mesh":7},{"translation":[-76,12,-76],"name":"pyramid","mesh":8},{"translation":[72,16,-72],"name":"sphere","mesh":9},{"translation":[72,12,-40],"name":"sphere","mesh":10},{"translation":[72,8,-16],"name":"sphere","mesh":11},{"translation":[72,4,4],"name":"sphere","mesh":12},{"rotation":[-0.7071067811865475,0,0,0.7071067811865476],"translation":[0,24,164],"name":"tube","mesh":13},{"translation":[-88,0,88],"name":"torus","mesh":14},{"rotation":[0,0,0.3826834323650898,0.9238795325112867],"translation":[-4,8,-80],"name":"cube","mesh":15},{"rotation":[0,0,-0.3826834323650898,0.9238795325112867],"translation":[-16,0,-80],"name":"cube","mesh":16}],"bufferViews":[{"buffer":0,"byteOffset":0,"byteLength":3888,"target":34962,"byteStride":12},{"buffer":0,"byteOffset":3888,"byteLength":3888,"target":34962,"byteStride":12},{"buffer":0,"byteOffset":7776,"byteLength":2592,"target":34962,"byteStride":8},{"buffer":0,"byteOffset":10368,"byteLength":972,"target":34963},{"buffer":0,"byteOffset":11340,"byteLength":288,"target":34962,"byteStride":12},{"buffer":0,"byteOffset":11628,"byteLength":288,"target":34962,"byteStride":12},{"buffer":0,"byteOffset":11916,"byteLength":192,"target":34962,"byteStride":8},{"buffer":0,"byteOffset":12108,"byteLength":72,"target":34963},{"buffer":0,"byteOffset":12180,"byteLength":288,"target":34962,"byteStride":12},{"buffer":0,"byteOffset":12468,"byteLength":288,"target":34962,"byteStride":12},{"buffer":0,"byteOffset":12756,"byteLength":192,"target":34962,"byteStride":8},{"buffer":0,"byteOffset":12948,"byteLength":72,"target":34963},{"buffer":0,"byteOffset":13020,"byteLength":288,"target":34962,"byteStride":12},{"buffer":0,"byteOffset":13308,"byteLength":288,"target":34962,"byteStride":12},{"buffer":0,"byteOffset":13596,"byteLength":192,"target":34962,"byteStride":8},{"buffer":0,"byteOffset":13788,"byteLength":72,"target":34963},{"buffer":0,"byteOffset":13860,"byteLength":288,"target":34962,"byteStride":12},{"buffer":0,"byteOffset":14148,"byteLength":288,"target":34962,"byteStride":12},{"buffer":0,"byteOffset":14436,"byteLength":192,"target":34962,"byteStride":8},{"buffer":0,"byteOffset":14628,"byteLength":72,"target":34963},{"buffer":0,"byteOffset":14700,"byteLength":288,"target":34962,"byteStride":12},{"buffer":0,"byteOffset":14988,"byteLength":288,"target":34962,"byteStride":12},{"buffer":0,"byteOffset":15276,"byteLength":192,"target":34962,"byteStride":8},{"buffer":0,"byteOffset":15468,"byteLength":72,"target":34963},{"buffer":0,"byteOffset":15540,"byteLength":192,"target":34962,"byteStride":12},{"buffer":0,"byteOffset":15732,"byteLength":192,"target":34962,"byteStride":12},{"buffer":0,"byteOffset":15924,"byteLength":128,"target":34962,"byteStride":8},{"buffer":0,"byteOffset":16052,"byteLength":36,"target":34963},{"buffer":0,"byteOffset":16088,"byteLength":192,"target":34962,"byteStride":12},{"buffer":0,"byteOffset":16280,"byteLength":192,"target":34962,"byteStride":12},{"buffer":0,"byteOffset":16472,"byteLength":128,"target":34962,"byteStride":8},{"buffer":0,"byteOffset":16600,"byteLength":36,"target":34963},{"buffer":0,"byteOffset":16636,"byteLength":192,"target":34962,"byteStride":12},{"buffer":0,"byteOffset":16828,"byteLength":192,"target":34962,"byteStride":12},{"buffer":0,"byteOffset":17020,"byteLength":128,"target":34962,"byteStride":8},{"buffer":0,"byteOffset":17148,"byteLength":36,"target":34963},{"buffer":0,"byteOffset":17184,"byteLength":3168,"target":34962,"byteStride":12},{"buffer":0,"byteOffset":20352,"byteLength":3168,"target":34962,"byteStride":12},{"buffer":0,"byteOffset":23520,"byteLength":2112,"target":34962,"byteStride":8},{"buffer":0,"byteOffset":25632,"byteLength":720,"target":34963},{"buffer":0,"byteOffset":26352,"byteLength":3168,"target":34962,"byteStride":12},{"buffer":0,"byteOffset":29520,"byteLength":3168,"target":34962,"byteStride":12},{"buffer":0,"byteOffset":32688,"byteLength":2112,"target":34962,"byteStride":8},{"buffer":0,"byteOffset":34800,"byteLength":720,"target":34963},{"buffer":0,"byteOffset":35520,"byteLength":3168,"target":34962,"byteStride":12},{"buffer":0,"byteOffset":38688,"byteLength":3168,"target":34962,"byteStride":12},{"buffer":0,"byteOffset":41856,"byteLength":2112,"target":34962,"byteStride":8},{"buffer":0,"byteOffset":43968,"byteLength":720,"target":34963},{"buffer":0,"byteOffset":44688,"byteLength":3168,"target":34962,"byteStride":12},{"buffer":0,"byteOffset":47856,"byteLength":3168,"target":34962,"byteStride":12},{"buffer":0,"byteOffset":51024,"byteLength":2112,"target":34962,"byteStride":8},{"buffer":0,"byteOffset":53136,"byteLength":720,"target":34963},{"buffer":0,"byteOffset":53856,"byteLength":1536,"target":34962,"byteStride":12},{"buffer":0,"byteOffset":55392,"byteLength":1536,"target":34962,"byteStride":12},{"buffer":0,"byteOffset":56928,"byteLength":1024,"target":34962,"byteStride":8},{"buffer":0,"byteOffset":57952,"byteLength":384,"target":34963},{"buffer":0,"byteOffset":58336,"byteLength":7680,"target":34962,"byteStride":12},{"buffer":0,"byteOffset":66016,"byteLength":7680,"target":34962,"byteStride":12},{"buffer":0,"byteOffset":73696,"byteLength":5120,"target":34962,"byteStride":8},{"buffer":0,"byteOffset":78816,"byteLength":1920,"target":34963},{"buffer":0,"byteOffset":80736,"byteLength":288,"target":34962,"byteStride":12},{"buffer":0,"byteOffset":81024,"byteLength":288,"target":34962,"byteStride":12},{"buffer":0,"byteOffset":81312,"byteLength":192,"target":34962,"byteStride":8},{"buffer":0,"byteOffset":81504,"byteLength":72,"target":34963},{"buffer":0,"byteOffset":81576,"byteLength":288,"target":34962,"byteStride":12},{"buffer":0,"byteOffset":81864,"byteLength":288,"target":34962,"byteStride":12},{"buffer":0,"byteOffset":82152,"byteLength":192,"target":34962,"byteStride":8},{"buffer":0,"byteOffset":82344,"byteLength":72,"target":34963}],"buffers":[{"byteLength":82416,"uri":"data:application/octet-stream;base64,"}],"accessors":[{"bufferView":0,"componentType":5126,"count":324,"max":[128,40,128],"min":[-128,-24,-128],"type":"VEC3"},{"bufferView":1,"componentType":5126,"count":324,"max":[0.8149553537368774,1,0.6448709964752197],"min":[-0.6448709964752197,0.5795237421989441,-0.8149553537368774],"type":"VEC3"},{"bufferView":2,"componentType":5126,"count":324,"max":[0.998046875,0.998046875],"min":[0,0],"type":"VEC2"},{"bufferView":3,"componentType":5123,"count":486,"max":[323],"min":[0],"type":"SCALAR"},{"bufferView":4,"componentType":5126,"count":24,"max":[4,16,4],"min":[-4,0,-4],"type":"VEC3"},{"bufferView":5,"componentType":5126,"count":24,"max":[1,1,1],"min":[-1,-1,-1],"type":"VEC3"},{"bufferView":6,"componentType":5126,"count":24,"max":[0.015625,0.03125],"min":[0,0],"type":"VEC2"},{"bufferView":7,"componentType":5123,"count":36,"max":[23],"min":[0],"type":"SCALAR"},{"bufferView":8,"componentType":5126,"count":24,"max":[4,12,4],"min":[-4,0,-4],"type":"VEC3"},{"bufferView":9,"componentType":5126,"count":24,"max":[1,1,1],"min":[-1,-1,-1],"type":"VEC3"},{"bufferView":10,"componentType":5126,"count":24,"max":[0.015625,0.0234375],"min":[0,0],"type":"VEC2"},{"bufferView":11,"componentType":5123,"count":36,"max":[23],"min":[0],"type":"SCALAR"},{"bufferView":12,"componentType":5126,"count":24,"max":[4,8,4],"min":[-4,0,-4],"type":"VEC3"},{"bufferView":13,"componentType":5126,"count":24,"max":[1,1,1],"min":[-1,-1,-1],"type":"VEC3"},{"bufferView":14,"componentType":5126,"count":24,"max":[0.015625,0.015625],"min":[0,0],"type":"VEC2"},{"bufferView":15,"componentType":5123,"count":36,"max":[23],"min":[0],"type":"SCALAR"},{"bufferView":16,"componentType":5126,"count":24,"max":[4,24,4],"min":[-4,0,-4],"type":"VEC3"},{"bufferView":17,"componentType":5126,"count":24,"max":[1,1,1],"min":[-1,-1,-1],"type":"VEC3"},{"bufferView":18,"componentType":5126,"count":24,"max":[0.015625,0.03125],"min":[0,0],"type":"VEC2"},{"bufferView":19,"componentType":5123,"count":36,"max":[23],"min":[0],"type":"SCALAR"},{"bufferView":20,"componentType":5126,"count":24,"max":[4,4,4],"min":[-4,0,-4],"type":"VEC3"},{"bufferView":21,"componentType":5126,"count":24,"max":[1,1,1],"min":[-1,-1,-1],"type":"VEC3"},{"bufferView":22,"componentType":5126,"count":24,"max":[0.015625,0.015625],"min":[0,0],"type":"VEC2"},{"bufferView":23,"componentType":5123,"count":36,"max":[23],"min":[0],"type":"SCALAR"},{"bufferView":24,"componentType":5126,"count":16,"max":[10,16,10],"min":[-10,-4,-10],"type":"VEC3"},{"bufferView":25,"componentType":5126,"count":16,"max":[0.8944271802902222,0.4472135901451111,0.8944271802902222],"min":[-0.8944271802902222,-1,-0.8944271802902222],"type":"VEC3"},{"bufferView":26,"componentType":5126,"count":16,"max":[0.0234375,0.026203930377960205],"min":[0,0],"type":"VEC2"},{"bufferView":27,"componentType":5123,"count":18,"max":[15],"min":[0],"type":"SCALAR"},{"bufferView":28,"componentType":5126,"count":16,"max":[14,20,14],"min":[-14,-8,-14],"type":"VEC3"},{"bufferView":29,"componentType":5126,"count":16,"max":[0.8944271802902222,0.4472135901451111,0.8944271802902222],"min":[-0.8944271802902222,-1,-0.8944271802902222],"type":"VEC3"},{"bufferView":30,"componentType":5126,"count":16,"max":[0.0234375,0.026203930377960205],"min":[0,0],"type":"VEC2"},{"bufferView":31,"componentType":5123,"count":18,"max":[15],"min":[0],"type":"SCALAR"},{"bufferView":32,"componentType":5126,"count":16,"max":[18,24,18],"min":[-18,-12,-18],"type":"VEC3"},{"bufferView":33,"componentType":5126,"count":16,"max":[0.8944271802902222,0.4472135901451111,0.8944271802902222],"min":[-0.8944271802902222,-1,-0.8944271802902222],"type":"VEC3"},{"bufferView":34,"componentType":5126,"count":16,"max":[0.0234375,0.026203930377960205],"min":[0,0],"type":"VEC2"},{"bufferView":35,"componentType":5123,"count":18,"max":[15],"min":[0],"type":"SCALAR"},{"bufferView":36,"componentType":5126,"count":264,"max":[16,16,16],"min":[-16,-16,-16],"type":"VEC3"},{"bufferView":37,"componentType":5126,"count":264,"max":[0.9659256339073181,0.9659256339073181,0.9659256339073181],"min":[-0.9659256339073181,-0.9659256339073181,-0.9659256339073181],"type":"VEC3"},{"bufferView":38,"componentType":5126,"count":264,"max":[0.016746874898672104,0.016176581382751465],"min":[0,0],"type":"VEC2"},{"bufferView":39,"componentType":5123,"count":360,"max":[263],"min":[0],"type":"SCALAR"},{"bufferView":40,"componentType":5126,"count":264,"max":[12,12,12],"min":[-12,-12,-12],"type":"VEC3"},{"bufferView":41,"componentType":5126,"count":264,"max":[0.9659264087677002,0.9659265279769897,0.9659264087677002],"min":[-0.9659264087677002,-0.9659265279769897,-0.9659264087677002],"type":"VEC3"},{"bufferView":42,"componentType":5126,"count":264,"max":[0.016746874898672104,0.016176581382751465],"min":[0,0],"type":"VEC2"},{"bufferView":43,"componentType":5123,"count":360,"max":[263],"min":[0],"type":"SCALAR"},{"bufferView":44,"componentType":5126,"count":264,"max":[8,8,8],"min":[-8,-8,-8],"type":"VEC3"},{"bufferView":45,"componentType":5126,"count":264,"max":[0.9659256339073181,0.9659256339073181,0.9659256339073181],"min":[-0.9659256339073181,-0.9659256339073181,-0.9659256339073181],"type":"VEC3"},{"bufferView":46,"componentType":5126,"count":264,"max":[0.016746874898672104,0.016176581382751465],"min":[0,0],"type":"VEC2"},{"bufferView":47,"componentType":5123,"count":360,"max":[263],"min":[0],"type":"SCALAR"},{"bufferView":48,"componentType":5126,"count":264,"max":[4,4,4],"min":[-4,-4,-4],"type":"VEC3"},{"bufferView":49,"componentType":5126,"count":264,"max":[0.9659280180931091,0.965928316116333,0.9659280180931091],"min":[-0.9659280180931091,-0.965928316116333,-0.9659280180931091],"type":"VEC3"},{"bufferView":50,"componentType":5126,"count":264,"max":[0.016746874898672104,0.016176581382751465],"min":[0,0],"type":"VEC2"},{"bufferView":51,"componentType":5123,"count":360,"max":[263],"min":[0],"type":"SCALAR"},{"bufferView":52,"componentType":5126,"count":128,"max":[28,64,28],"min":[-28,0,-28],"type":"VEC3"},{"bufferView":53,"componentType":5126,"count":128,"max":[1,1,1],"min":[-1,-1,-1],"type":"VEC3"},{"bufferView":54,"componentType":5126,"count":128,"max":[0.045304685831069946,0.125],"min":[0,0],"type":"VEC2"},{"bufferView":55,"componentType":5123,"count":192,"max":[127],"min":[0],"type":"SCALAR"},{"bufferView":56,"componentType":5126,"count":640,"max":[41.51055908203125,10.19591999053955,41.51055908203125],"min":[-41.51055908203125,-10.19591999053955,-41.51055908203125],"type":"VEC3"},{"bufferView":57,"componentType":5126,"count":640,"max":[1,0.9492654800415039,1],"min":[-1,-0.9492654800415039,-1],"type":"VEC3"},{"bufferView":58,"componentType":5126,"count":640,"max":[0.03225312381982803,0.012307822704315186],"min":[0,0],"type":"VEC2"},{"bufferView":59,"componentType":5123,"count":960,"max":[639],"min":[0],"type":"SCALAR"},{"bufferView":60,"componentType":5126,"count":24,"max":[0,16,0],"min":[-4,-8,-4],"type":"VEC3"},{"bufferView":61,"componentType":5126,"count":24,"max":[1,1,1],"min":[-1,-1,-1],"type":"VEC3"},{"bufferView":62,"componentType":5126,"count":24,"max":[0.0078125,0.03125],"min":[0,0],"type":"VEC2"},{"bufferView":63,"componentType":5123,"count":36,"max":[23],"min":[0],"type":"SCALAR"},{"bufferView":64,"componentType":5126,"count":24,"max":[0,24,0],"min":[-4,0,-4],"type":"VEC3"},{"bufferView":65,"componentType":5126,"count":24,"max":[1,1,1],"min":[-1,-1,-1],"type":"VEC3"},{"bufferView":66,"componentType":5126,"count":24,"max":[0.0078125,0.03125],"min":[0,0],"type":"VEC2"},{"bufferView":67,"componentType":5123,"count":36,"max":[23],"min":[0],"type":"SCALAR"}],"materials":[{"pbrMetallicRoughness":{"metallicFactor":0,"roughnessFactor":1,"baseColorTexture":{"index":0}},"alphaMode":"MASK","alphaCutoff":0.05,"doubleSided":true},{"pbrMetallicRoughness":{"metallicFactor":0,"roughnessFactor":1,"baseColorTexture":{"index":1}},"alphaMode":"MASK","alphaCutoff":0.05,"doubleSided":true},{"pbrMetallicRoughness":{"metallicFactor":0,"roughnessFactor":1,"baseColorTexture":{"index":2}},"alphaMode":"MASK","alphaCutoff":0.05,"doubleSided":true},{"pbrMetallicRoughness":{"metallicFactor":0,"roughnessFactor":1,"baseColorTexture":{"index":3}},"alphaMode":"MASK","alphaCutoff":0.05,"doubleSided":true},{"pbrMetallicRoughness":{"metallicFactor":0,"roughnessFactor":1,"baseColorTexture":{"index":4}},"alphaMode":"MASK","alphaCutoff":0.05,"doubleSided":true},{"pbrMetallicRoughness":{"metallicFactor":0,"roughnessFactor":1,"baseColorTexture":{"index":5}},"alphaMode":"MASK","alphaCutoff":0.05,"doubleSided":true},{"pbrMetallicRoughness":{"metallicFactor":0,"roughnessFactor":1,"baseColorTexture":{"index":6}},"alphaMode":"MASK","alphaCutoff":0.05,"doubleSided":true}],"textures":[{"sampler":0,"source":0,"name":"playtest_map.png"},{"sampler":1,"source":1,"name":"playtest_map_cube.png"},{"sampler":2,"source":2,"name":"playtest_map_pyramid.png"},{"sampler":3,"source":3,"name":"playtest_map_ball.png"},{"sampler":4,"source":4,"name":"playtest_map_tunel.png"},{"sampler":5,"source":5,"name":"playtest_map_taurus.png"},{"sampler":6,"source":6,"name":"playtest_map_cross.png"}],"samplers":[{"magFilter":9728,"minFilter":9728,"wrapS":33071,"wrapT":33071},{"magFilter":9728,"minFilter":9728,"wrapS":33071,"wrapT":33071},{"magFilter":9728,"minFilter":9728,"wrapS":33071,"wrapT":33071},{"magFilter":9728,"minFilter":9728,"wrapS":33071,"wrapT":33071},{"magFilter":9728,"minFilter":9728,"wrapS":33071,"wrapT":33071},{"magFilter":9728,"minFilter":9728,"wrapS":33071,"wrapT":33071},{"magFilter":9728,"minFilter":9728,"wrapS":33071,"wrapT":33071}],"images":[{"mimeType":"image/png","uri":"data:image/png;base64,"},{"mimeType":"image/png","uri":"data:image/png;base64,"},{"mimeType":"image/png","uri":"data:image/png;base64,"},{"mimeType":"image/png","uri":"data:image/png;base64,"},{"mimeType":"image/png","uri":"data:image/png;base64,"},{"mimeType":"image/png","uri":"data:image/png;base64,"},{"mimeType":"image/png","uri":"data:image/png;base64,"}],"meshes":[{"primitives":[{"mode":4,"attributes":{"POSITION":0,"NORMAL":1,"TEXCOORD_0":2},"indices":3,"material":0}]},{"primitives":[{"mode":4,"attributes":{"POSITION":4,"NORMAL":5,"TEXCOORD_0":6},"indices":7,"material":1}]},{"primitives":[{"mode":4,"attributes":{"POSITION":8,"NORMAL":9,"TEXCOORD_0":10},"indices":11,"material":1}]},{"primitives":[{"mode":4,"attributes":{"POSITION":12,"NORMAL":13,"TEXCOORD_0":14},"indices":15,"material":1}]},{"primitives":[{"mode":4,"attributes":{"POSITION":16,"NORMAL":17,"TEXCOORD_0":18},"indices":19,"material":1}]},{"primitives":[{"mode":4,"attributes":{"POSITION":20,"NORMAL":21,"TEXCOORD_0":22},"indices":23,"material":1}]},{"primitives":[{"mode":4,"attributes":{"POSITION":24,"NORMAL":25,"TEXCOORD_0":26},"indices":27,"material":2}]},{"primitives":[{"mode":4,"attributes":{"POSITION":28,"NORMAL":29,"TEXCOORD_0":30},"indices":31,"material":2}]},{"primitives":[{"mode":4,"attributes":{"POSITION":32,"NORMAL":33,"TEXCOORD_0":34},"indices":35,"material":2}]},{"primitives":[{"mode":4,"attributes":{"POSITION":36,"NORMAL":37,"TEXCOORD_0":38},"indices":39,"material":3}]},{"primitives":[{"mode":4,"attributes":{"POSITION":40,"NORMAL":41,"TEXCOORD_0":42},"indices":43,"material":3}]},{"primitives":[{"mode":4,"attributes":{"POSITION":44,"NORMAL":45,"TEXCOORD_0":46},"indices":47,"material":3}]},{"primitives":[{"mode":4,"attributes":{"POSITION":48,"NORMAL":49,"TEXCOORD_0":50},"indices":51,"material":3}]},{"primitives":[{"mode":4,"attributes":{"POSITION":52,"NORMAL":53,"TEXCOORD_0":54},"indices":55,"material":4}]},{"primitives":[{"mode":4,"attributes":{"POSITION":56,"NORMAL":57,"TEXCOORD_0":58},"indices":59,"material":5}]},{"primitives":[{"mode":4,"attributes":{"POSITION":60,"NORMAL":61,"TEXCOORD_0":62},"indices":63,"material":6}]},{"primitives":[{"mode":4,"attributes":{"POSITION":64,"NORMAL":65,"TEXCOORD_0":66},"indices":67,"material":6}]}]}