{"asset":{"version":"2.0","generator":"Blockbench 4.12.6 glTF exporter"},"scenes":[{"nodes":[0,1,2,3,4,5,6,7,8,9,10,11,12,13,14,15,16,17],"name":"blockbench_export"}],"scene":0,"nodes":[{"translation":[16,0,17],"name":"cube","mesh":0},{"translation":[16,0,14],"name":"cube","mesh":1},{"translation":[16,0,11],"name":"cube","mesh":2},{"translation":[16,0,20],"name":"cube","mesh":3},{"translation":[16,0,8],"name":"cube","mesh":4},{"translation":[-19,1,-3],"name":"pyramid","mesh":5},{"translation":[-19,2,-10],"name":"pyramid","mesh":6},{"translation":[-19,3,-19],"name":"pyramid","mesh":7},{"translation":[18,4,-18],"name":"sphere","mesh":8},{"translation":[18,3,-10],"name":"sphere","mesh":9},{"translation":[18,2,-4],"name":"sphere","mesh":10},{"translation":[18,1,1],"name":"sphere","mesh":11},{"rotation":[-0.7071067811865475,0,0,0.7071067811865476],"translation":[0,6,41],"name":"tube","mesh":12},{"translation":[-22,0,22],"name":"torus","mesh":13},{"rotation":[0,0,0.3826834323650898,0.9238795325112867],"translation":[-1,2,-20],"name":"cube","mesh":14},{"rotation":[0,0,-0.3826834323650898,0.9238795325112867],"translation":[-4,0,-20],"name":"cube","mesh":15},{"translation":[5,-2,0],"name":"cube","mesh":16},{"translation":[136,-2,0],"name":"cube","mesh":17}],"bufferViews":[{"buffer":0,"byteOffset":0,"byteLength":288,"target":34962,"byteStride":12},{"buffer":0,"byteOffset":288,"byteLength":288,"target":34962,"byteStride":12},{"buffer":0,"byteOffset":576,"byteLength":192,"target":34962,"byteStride":8},{"buffer":0,"byteOffset":768,"byteLength":72,"target":34963},{"buffer":0,"byteOffset":840,"byteLength":288,"target":34962,"byteStride":12},{"buffer":0,"byteOffset":1128,"byteLength":288,"target":34962,"byteStride":12},{"buffer":0,"byteOffset":1416,"byteLength":192,"target":34962,"byteStride":8},{"buffer":0,"byteOffset":1608,"byteLength":72,"target":34963},{"buffer":0,"byteOffset":1680,"byteLength":288,"target":34962,"byteStride":12},{"buffer":0,"byteOffset":1968,"byteLength":288,"target":34962,"byteStride":12},{"buffer":0,"byteOffset":2256,"byteLength":192,"target":34962,"byteStride":8},{"buffer":0,"byteOffset":2448,"byteLength":72,"target":34963},{"buffer":0,"byteOffset":2520,"byteLength":288,"target":34962,"byteStride":12},{"buffer":0,"byteOffset":2808,"byteLength":288,"target":34962,"byteStride":12},{"buffer":0,"byteOffset":3096,"byteLength":192,"target":34962,"byteStride":8},{"buffer":0,"byteOffset":3288,"byteLength":72,"target":34963},{"buffer":0,"byteOffset":3360,"byteLength":288,"target":34962,"byteStride":12},{"buffer":0,"byteOffset":3648,"byteLength":288,"target":34962,"byteStride":12},{"buffer":0,"byteOffset":3936,"byteLength":192,"target":34962,"byteStride":8},{"buffer":0,"byteOffset":4128,"byteLength":72,"target":34963},{"buffer":0,"byteOffset":4200,"byteLength":192,"target":34962,"byteStride":12},{"buffer":0,"byteOffset":4392,"byteLength":192,"target":34962,"byteStride":12},{"buffer":0,"byteOffset":4584,"byteLength":128,"target":34962,"byteStride":8},{"buffer":0,"byteOffset":4712,"byteLength":36,"target":34963},{"buffer":0,"byteOffset":4748,"byteLength":192,"target":34962,"byteStride":12},{"buffer":0,"byteOffset":4940,"byteLength":192,"target":34962,"byteStride":12},{"buffer":0,"byteOffset":5132,"byteLength":128,"target":34962,"byteStride":8},{"buffer":0,"byteOffset":5260,"byteLength":36,"target":34963},{"buffer":0,"byteOffset":5296,"byteLength":192,"target":34962,"byteStride":12},{"buffer":0,"byteOffset":5488,"byteLength":192,"target":34962,"byteStride":12},{"buffer":0,"byteOffset":5680,"byteLength":128,"target":34962,"byteStride":8},{"buffer":0,"byteOffset":5808,"byteLength":36,"target":34963},{"buffer":0,"byteOffset":5844,"byteLength":3168,"target":34962,"byteStride":12},{"buffer":0,"byteOffset":9012,"byteLength":3168,"target":34962,"byteStride":12},{"buffer":0,"byteOffset":12180,"byteLength":2112,"target":34962,"byteStride":8},{"buffer":0,"byteOffset":14292,"byteLength":720,"target":34963},{"buffer":0,"byteOffset":15012,"byteLength":3168,"target":34962,"byteStride":12},{"buffer":0,"byteOffset":18180,"byteLength":3168,"target":34962,"byteStride":12},{"buffer":0,"byteOffset":21348,"byteLength":2112,"target":34962,"byteStride":8},{"buffer":0,"byteOffset":23460,"byteLength":720,"target":34963},{"buffer":0,"byteOffset":24180,"byteLength":3168,"target":34962,"byteStride":12},{"buffer":0,"byteOffset":27348,"byteLength":3168,"target":34962,"byteStride":12},{"buffer":0,"byteOffset":30516,"byteLength":2112,"target":34962,"byteStride":8},{"buffer":0,"byteOffset":32628,"byteLength":720,"target":34963},{"buffer":0,"byteOffset":33348,"byteLength":3168,"target":34962,"byteStride":12},{"buffer":0,"byteOffset":36516,"byteLength":3168,"target":34962,"byteStride":12},{"buffer":0,"byteOffset":39684,"byteLength":2112,"target":34962,"byteStride":8},{"buffer":0,"byteOffset":41796,"byteLength":720,"target":34963},{"buffer":0,"byteOffset":42516,"byteLength":1536,"target":34962,"byteStride":12},{"buffer":0,"byteOffset":44052,"byteLength":1536,"target":34962,"byteStride":12},{"buffer":0,"byteOffset":45588,"byteLength":1024,"target":34962,"byteStride":8},{"buffer":0,"byteOffset":46612,"byteLength":384,"target":34963},{"buffer":0,"byteOffset":46996,"byteLength":7680,"target":34962,"byteStride":12},{"buffer":0,"byteOffset":54676,"byteLength":7680,"target":34962,"byteStride":12},{"buffer":0,"byteOffset":62356,"byteLength":5120,"target":34962,"byteStride":8},{"buffer":0,"byteOffset":67476,"byteLength":1920,"target":34963},{"buffer":0,"byteOffset":69396,"byteLength":288,"target":34962,"byteStride":12},{"buffer":0,"byteOffset":69684,"byteLength":288,"target":34962,"byteStride":12},{"buffer":0,"byteOffset":69972,"byteLength":192,"target":34962,"byteStride":8},{"buffer":0,"byteOffset":70164,"byteLength":72,"target":34963},{"buffer":0,"byteOffset":70236,"byteLength":288,"target":34962,"byteStride":12},{"buffer":0,"byteOffset":70524,"byteLength":288,"target":34962,"byteStride":12},{"buffer":0,"byteOffset":70812,"byteLength":192,"target":34962,"byteStride":8},{"buffer":0,"byteOffset":71004,"byteLength":72,"target":34963},{"buffer":0,"byteOffset":71076,"byteLength":288,"target":34962,"byteStride":12},{"buffer":0,"byteOffset":71364,"byteLength":288,"target":34962,"byteStride":12},{"buffer":0,"byteOffset":71652,"byteLength":192,"target":34962,"byteStride":8},{"buffer":0,"byteOffset":71844,"byteLength":72,"target":34963},{"buffer":0,"byteOffset":71916,"byteLength":48,"target":34962,"byteStride":12},{"buffer":0,"byteOffset":71964,"byteLength":48,"target":34962,"byteStride":12},{"buffer":0,"byteOffset":72012,"byteLength":32,"target":34962,"byteStride":8},{"buffer":0,"byteOffset":72044,"byteLength":12,"target":34963}],"buffers":[{"byteLength":72056,"uri":"data:application/octet-stream;base64,"}],"accessors":[{"bufferView":0,"componentType":5126,"count":24,"max":[1,4,1],"min":[-1,0,-1],"type":"VEC3"},{"bufferView":1,"componentType":5126,"count":24,"max":[1,1,1],"min":[-1,-1,-1],"type":"VEC3"},{"bufferView":2,"componentType":5126,"count":24,"max":[0.015625,0.03125],"min":[0,0],"type":"VEC2"},{"bufferView":3,"componentType":5123,"count":36,"max":[23],"min":[0],"type":"SCALAR"},{"bufferView":4,"componentType":5126,"count":24,"max":[1,3,1],"min":[-1,0,-1],"type":"VEC3"},{"bufferView":5,"componentType":5126,"count":24,"max":[1,1,1],"min":[-1,-1,-1],"type":"VEC3"},{"bufferView":6,"componentType":5126,"count":24,"max":[0.015625,0.0234375],"min":[0,0],"type":"VEC2"},{"bufferView":7,"componentType":5123,"count":36,"max":[23],"min":[0],"type":"SCALAR"},{"bufferView":8,"componentType":5126,"count":24,"max":[1,2,1],"min":[-1,0,-1],"type":"VEC3"},{"bufferView":9,"componentType":5126,"count":24,"max":[1,1,1],"min":[-1,-1,-1],"type":"VEC3"},{"bufferView":10,"componentType":5126,"count":24,"max":[0.015625,0.015625],"min":[0,0],"type":"VEC2"},{"bufferView":11,"componentType":5123,"count":36,"max":[23],"min":[0],"type":"SCALAR"},{"bufferView":12,"componentType":5126,"count":24,"max":[1,6,1],"min":[-1,0,-1],"type":"VEC3"},{"bufferView":13,"componentType":5126,"count":24,"max":[1,1,1],"min":[-1,-1,-1],"type":"VEC3"},{"bufferView":14,"componentType":5126,"count":24,"max":[0.015625,0.03125],"min":[0,0],"type":"VEC2"},{"bufferView":15,"componentType":5123,"count":36,"max":[23],"min":[0],"type":"SCALAR"},{"bufferView":16,"componentType":5126,"count":24,"max":[1,1,1],"min":[-1,0,-1],"type":"VEC3"},{"bufferView":17,"componentType":5126,"count":24,"max":[1,1,1],"min":[-1,-1,-1],"type":"VEC3"},{"bufferView":18,"componentType":5126,"count":24,"max":[0.015625,0.015625],"min":[0,0],"type":"VEC2"},{"bufferView":19,"componentType":5123,"count":36,"max":[23],"min":[0],"type":"SCALAR"},{"bufferView":20,"componentType":5126,"count":16,"max":[2.5,4,2.5],"min":[-2.5,-1,-2.5],"type":"VEC3"},{"bufferView":21,"componentType":5126,"count":16,"max":[0.8944271802902222,0.4472135901451111,0.8944271802902222],"min":[-0.8944271802902222,-1,-0.8944271802902222],"type":"VEC3"},{"bufferView":22,"componentType":5126,"count":16,"max":[0.0234375,0.026203930377960205],"min":[0,0],"type":"VEC2"},{"bufferView":23,"componentType":5123,"count":18,"max":[15],"min":[0],"type":"SCALAR"},{"bufferView":24,"componentType":5126,"count":16,"max":[3.5,5,3.5],"min":[-3.5,-2,-3.5],"type":"VEC3"},{"bufferView":25,"componentType":5126,"count":16,"max":[0.8944271802902222,0.4472135901451111,0.8944271802902222],"min":[-0.8944271802902222,-1,-0.8944271802902222],"type":"VEC3"},{"bufferView":26,"componentType":5126,"count":16,"max":[0.0234375,0.026203930377960205],"min":[0,0],"type":"VEC2"},{"bufferView":27,"componentType":5123,"count":18,"max":[15],"min":[0],"type":"SCALAR"},{"bufferView":28,"componentType":5126,"count":16,"max":[4.5,6,4.5],"min":[-4.5,-3,-4.5],"type":"VEC3"},{"bufferView":29,"componentType":5126,"count":16,"max":[0.8944271802902222,0.4472135901451111,0.8944271802902222],"min":[-0.8944271802902222,-1,-0.8944271802902222],"type":"VEC3"},{"bufferView":30,"componentType":5126,"count":16,"max":[0.0234375,0.026203930377960205],"min":[0,0],"type":"VEC2"},{"bufferView":31,"componentType":5123,"count":18,"max":[15],"min":[0],"type":"SCALAR"},{"bufferView":32,"componentType":5126,"count":264,"max":[4,4,4],"min":[-4,-4,-4],"type":"VEC3"},{"bufferView":33,"componentType":5126,"count":264,"max":[0.9659256339073181,0.9659256339073181,0.9659256339073181],"min":[-0.9659256339073181,-0.9659256339073181,-0.9659256339073181],"type":"VEC3"},{"bufferView":34,"componentType":5126,"count":264,"max":[0.016746874898672104,0.016176581382751465],"min":[0,0],"type":"VEC2"},{"bufferView":35,"componentType":5123,"count":360,"max":[263],"min":[0],"type":"SCALAR"},{"bufferView":36,"componentType":5126,"count":264,"max":[3,3,3],"min":[-3,-3,-3],"type":"VEC3"},{"bufferView":37,"componentType":5126,"count":264,"max":[0.9659264087677002,0.9659265279769897,0.9659264087677002],"min":[-0.9659264087677002,-0.9659265279769897,-0.9659264087677002],"type":"VEC3"},{"bufferView":38,"componentType":5126,"count":264,"max":[0.016746874898672104,0.016176581382751465],"min":[0,0],"type":"VEC2"},{"bufferView":39,"componentType":5123,"count":360,"max":[263],"min":[0],"type":"SCALAR"},{"bufferView":40,"componentType":5126,"count":264,"max":[2,2,2],"min":[-2,-2,-2],"type":"VEC3"},{"bufferView":41,"componentType":5126,"count":264,"max":[0.9659256339073181,0.9659256339073181,0.9659256339073181],"min":[-0.9659256339073181,-0.9659256339073181,-0.9659256339073181],"type":"VEC3"},{"bufferView":42,"componentType":5126,"count":264,"max":[0.016746874898672104,0.016176581382751465],"min":[0,0],"type":"VEC2"},{"bufferView":43,"componentType":5123,"count":360,"max":[263],"min":[0],"type":"SCALAR"},{"bufferView":44,"componentType":5126,"count":264,"max":[1,1,1],"min":[-1,-1,-1],"type":"VEC3"},{"bufferView":45,"componentType":5126,"count":264,"max":[0.9659280180931091,0.965928316116333,0.9659280180931091],"min":[-0.9659280180931091,-0.965928316116333,-0.9659280180931091],"type":"VEC3"},{"bufferView":46,"componentType":5126,"count":264,"max":[0.016746874898672104,0.016176581382751465],"min":[0,0],"type":"VEC2"},{"bufferView":47,"componentType":5123,"count":360,"max":[263],"min":[0],"type":"SCALAR"},{"bufferView":48,"componentType":5126,"count":128,"max":[7,16,7],"min":[-7,0,-7],"type":"VEC3"},{"bufferView":49,"componentType":5126,"count":128,"max":[1,1,1],"min":[-1,-1,-1],"type":"VEC3"},{"bufferView":50,"componentType":5126,"count":128,"max":[0.045304685831069946,0.125],"min":[0,0],"type":"VEC2"},{"bufferView":51,"componentType":5123,"count":192,"max":[127],"min":[0],"type":"SCALAR"},{"bufferView":52,"componentType":5126,"count":640,"max":[10.377639770507812,2.5489799976348877,10.377639770507812],"min":[-10.377639770507812,-2.5489799976348877,-10.377639770507812],"type":"VEC3"},{"bufferView":53,"componentType":5126,"count":640,"max":[1,0.9492654800415039,1],"min":[-1,-0.9492654800415039,-1],"type":"VEC3"},{"bufferView":54,"componentType":5126,"count":640,"max":[0.03225312381982803,0.012307822704315186],"min":[0,0],"type":"VEC2"},{"bufferView":55,"componentType":5123,"count":960,"max":[639],"min":[0],"type":"SCALAR"},{"bufferView":56,"componentType":5126,"count":24,"max":[0,4,0],"min":[-1,-2,-1],"type":"VEC3"},{"bufferView":57,"componentType":5126,"count":24,"max":[1,1,1],"min":[-1,-1,-1],"type":"VEC3"},{"bufferView":58,"componentType":5126,"count":24,"max":[0.0078125,0.03125],"min":[0,0],"type":"VEC2"},{"bufferView":59,"componentType":5123,"count":36,"max":[23],"min":[0],"type":"SCALAR"},{"bufferView":60,"componentType":5126,"count":24,"max":[0,6,0],"min":[-1,0,-1],"type":"VEC3"},{"bufferView":61,"componentType":5126,"count":24,"max":[1,1,1],"min":[-1,-1,-1],"type":"VEC3"},{"bufferView":62,"componentType":5126,"count":24,"max":[0.0078125,0.03125],"min":[0,0],"type":"VEC2"},{"bufferView":63,"componentType":5123,"count":36,"max":[23],"min":[0],"type":"SCALAR"},{"bufferView":64,"componentType":5126,"count":24,"max":[27,2,33],"min":[-37,0,-32],"type":"VEC3"},{"bufferView":65,"componentType":5126,"count":24,"max":[1,1,1],"min":[-1,-1,-1],"type":"VEC3"},{"bufferView":66,"componentType":5126,"count":24,"max":[1,1],"min":[0,0],"type":"VEC2"},{"bufferView":67,"componentType":5123,"count":36,"max":[23],"min":[0],"type":"SCALAR"},{"bufferView":68,"componentType":5126,"count":4,"max":[92,2,97.5],"min":[-102,2,-96.5],"type":"VEC3"},{"bufferView":69,"componentType":5126,"count":4,"max":[0,1,0],"min":[0,1,0],"type":"VEC3"},{"bufferView":70,"componentType":5126,"count":4,"max":[1,1],"min":[0,0],"type":"VEC2"},{"bufferView":71,"componentType":5123,"count":6,"max":[3],"min":[0],"type":"SCALAR"}],"materials":[{"pbrMetallicRoughness":{"metallicFactor":0,"roughnessFactor":1,"baseColorTexture":{"index":0}},"alphaMode":"MASK","alphaCutoff":0.05,"doubleSided":true},{"pbrMetallicRoughness":{"metallicFactor":0,"roughnessFactor":1,"baseColorTexture":{"index":1}},"alphaMode":"MASK","alphaCutoff":0.05,"doubleSided":true},{"pbrMetallicRoughness":{"metallicFactor":0,"roughnessFactor":1,"baseColorTexture":{"index":2}},"alphaMode":"MASK","alphaCutoff":0.05,"doubleSided":true},{"pbrMetallicRoughness":{"metallicFactor":0,"roughnessFactor":1,"baseColorTexture":{"index":3}},"alphaMode":"MASK","alphaCutoff":0.05,"doubleSided":true},{"pbrMetallicRoughness":{"metallicFactor":0,"roughnessFactor":1,"baseColorTexture":{"index":4}},"alphaMode":"MASK","alphaCutoff":0.05,"doubleSided":true},{"pbrMetallicRoughness":{"metallicFactor":0,"roughnessFactor":1,"baseColorTexture":{"index":5}},"alphaMode":"MASK","alphaCutoff":0.05,"doubleSided":true},{"pbrMetallicRoughness":{"metallicFactor":0,"roughnessFactor":1},"alphaMode":"MASK","alphaCutoff":0.05,"doubleSided":true}],"textures":[{"sampler":0,"source":0,"name":"playtest_map_cube.png"},{"sampler":1,"source":1,"name":"playtest_map_pyramid.png"},{"sampler":2,"source":2,"name":"playtest_map_ball.png"},{"sampler":3,"source":3,"name":"playtest_map_tunel.png"},{"sampler":4,"source":4,"name":"playtest_map_taurus.png"},{"sampler":5,"source":5,"name":"playtest_map_cross.png"}],"samplers":[{"magFilter":9728,"minFilter":9728,"wrapS":33071,"wrapT":33071},{"magFilter":9728,"minFilter":9728,"wrapS":33071,"wrapT":33071},{"magFilter":9728,"minFilter":9728,"wrapS":33071,"wrapT":33071},{"magFilter":9728,"minFilter":9728,"wrapS":33071,"wrapT":33071},{"magFilter":9728,"minFilter":9728,"wrapS":33071,"wrapT":33071},{"magFilter":9728,"minFilter":9728,"wrapS":33071,"wrapT":33071}],"images":[{"mimeType":"image/png","uri":"data:image/png;base64,"},{"mimeType":"image/png","uri":"data:image/png;base64,"},{"mimeType":"image/png","uri":"data:image/png;base64,"},{"mimeType":"image/png","uri":"data:image/png;base64,"},{"mimeType":"image/png","uri":"data:image/png;base64,"},{"mimeType":"image/png","uri":"data:image/png;base64,"}],"meshes":[{"primitives":[{"mode":4,"attributes":{"POSITION":0,"NORMAL":1,"TEXCOORD_0":2},"indices":3,"material":0}]},{"primitives":[{"mode":4,"attributes":{"POSITION":4,"NORMAL":5,"TEXCOORD_0":6},"indices":7,"material":0}]},{"primitives":[{"mode":4,"attributes":{"POSITION":8,"NORMAL":9,"TEXCOORD_0":10},"indices":11,"material":0}]},{"primitives":[{"mode":4,"attributes":{"POSITION":12,"NORMAL":13,"TEXCOORD_0":14},"indices":15,"material":0}]},{"primitives":[{"mode":4,"attributes":{"POSITION":16,"NORMAL":17,"TEXCOORD_0":18},"indices":19,"material":0}]},{"primitives":[{"mode":4,"attributes":{"POSITION":20,"NORMAL":21,"TEXCOORD_0":22},"indices":23,"material":1}]},{"primitives":[{"mode":4,"attributes":{"POSITION":24,"NORMAL":25,"TEXCOORD_0":26},"indices":27,"material":1}]},{"primitives":[{"mode":4,"attributes":{"POSITION":28,"NORMAL":29,"TEXCOORD_0":30},"indices":31,"material":1}]},{"primitives":[{"mode":4,"attributes":{"POSITION":32,"NORMAL":33,"TEXCOORD_0":34},"indices":35,"material":2}]},{"primitives":[{"mode":4,"attributes":{"POSITION":36,"NORMAL":37,"TEXCOORD_0":38},"indices":39,"material":2}]},{"primitives":[{"mode":4,"attributes":{"POSITION":40,"NORMAL":41,"TEXCOORD_0":42},"indices":43,"material":2}]},{"primitives":[{"mode":4,"attributes":{"POSITION":44,"NORMAL":45,"TEXCOORD_0":46},"indices":47,"material":2}]},{"primitives":[{"mode":4,"attributes":{"POSITION":48,"NORMAL":49,"TEXCOORD_0":50},"indices":51,"material":3}]},{"primitives":[{"mode":4,"attributes":{"POSITION":52,"NORMAL":53,"TEXCOORD_0":54},"indices":55,"material":4}]},{"primitives":[{"mode":4,"attributes":{"POSITION":56,"NORMAL":57,"TEXCOORD_0":58},"indices":59,"material":5}]},{"primitives":[{"mode":4,"attributes":{"POSITION":60,"NORMAL":61,"TEXCOORD_0":62},"indices":63,"material":5}]},{"primitives":[{"mode":4,"attributes":{"POSITION":64,"NORMAL":65,"TEXCOORD_0":66},"indices":67,"material":6}]},{"primitives":[{"mode":4,"attributes":{"POSITION":68,"NORMAL":69,"TEXCOORD_0":70},"indices":71,"material":6}]}]}