{"asset":{"version":"2.0","generator":"Blockbench 4.12.3 glTF exporter"},"scenes":[{"nodes":[0,1,2,3,4,5,6,7,8,9,10,11,12,13,14,15,16,17,18,19,20,21,22,23,24],"name":"blockbench_export"}],"scene":0,"nodes":[{"translation":[64,0,64],"name":"plane","mesh":0},{"translation":[0,0,64],"name":"plane","mesh":1},{"translation":[-64,0,64],"name":"plane","mesh":2},{"translation":[64,0,0],"name":"plane","mesh":3},{"name":"plane","mesh":4},{"translation":[-64,0,0],"name":"plane","mesh":5},{"translation":[64,0,-64],"name":"plane","mesh":6},{"translation":[0,0,-64],"name":"plane","mesh":7},{"translation":[-64,0,-64],"name":"plane","mesh":8},{"translation":[64,0,68],"name":"cube","mesh":9},{"translation":[64,0,56],"name":"cube","mesh":10},{"translation":[64,0,44],"name":"cube","mesh":11},{"translation":[64,0,80],"name":"cube","mesh":12},{"translation":[64,0,32],"name":"cube","mesh":13},{"translation":[-76,4,-12],"name":"pyramid","mesh":14},{"translation":[-76,8,-40],"name":"pyramid","mesh":15},{"translation":[-76,12,-76],"name":"pyramid","mesh":16},{"translation":[72,16,-72],"name":"sphere","mesh":17},{"translation":[72,12,-40],"name":"sphere","mesh":18},{"translation":[72,8,-16],"name":"sphere","mesh":19},{"translation":[72,4,4],"name":"sphere","mesh":20},{"rotation":[-0.7071067811865475,0,0,0.7071067811865476],"translation":[0,24,164],"name":"tube","mesh":21},{"translation":[-88,0,88],"name":"torus","mesh":22},{"rotation":[0,0,0.3826834323650898,0.9238795325112867],"translation":[-4,8,-80],"name":"cube","mesh":23},{"rotation":[0,0,-0.3826834323650898,0.9238795325112867],"translation":[-16,0,-80],"name":"cube","mesh":24}],"bufferViews":[{"buffer":0,"byteOffset":0,"byteLength":48,"target":34962,"byteStride":12},{"buffer":0,"byteOffset":48,"byteLength":48,"target":34962,"byteStride":12},{"buffer":0,"byteOffset":96,"byteLength":32,"target":34962,"byteStride":8},{"buffer":0,"byteOffset":128,"byteLength":12,"target":34963},{"buffer":0,"byteOffset":140,"byteLength":48,"target":34962,"byteStride":12},{"buffer":0,"byteOffset":188,"byteLength":48,"target":34962,"byteStride":12},{"buffer":0,"byteOffset":236,"byteLength":32,"target":34962,"byteStride":8},{"buffer":0,"byteOffset":268,"byteLength":12,"target":34963},{"buffer":0,"byteOffset":280,"byteLength":48,"target":34962,"byteStride":12},{"buffer":0,"byteOffset":328,"byteLength":48,"target":34962,"byteStride":12},{"buffer":0,"byteOffset":376,"byteLength":32,"target":34962,"byteStride":8},{"buffer":0,"byteOffset":408,"byteLength":12,"target":34963},{"buffer":0,"byteOffset":420,"byteLength":48,"target":34962,"byteStride":12},{"buffer":0,"byteOffset":468,"byteLength":48,"target":34962,"byteStride":12},{"buffer":0,"byteOffset":516,"byteLength":32,"target":34962,"byteStride":8},{"buffer":0,"byteOffset":548,"byteLength":12,"target":34963},{"buffer":0,"byteOffset":560,"byteLength":48,"target":34962,"byteStride":12},{"buffer":0,"byteOffset":608,"byteLength":48,"target":34962,"byteStride":12},{"buffer":0,"byteOffset":656,"byteLength":32,"target":34962,"byteStride":8},{"buffer":0,"byteOffset":688,"byteLength":12,"target":34963},{"buffer":0,"byteOffset":700,"byteLength":48,"target":34962,"byteStride":12},{"buffer":0,"byteOffset":748,"byteLength":48,"target":34962,"byteStride":12},{"buffer":0,"byteOffset":796,"byteLength":32,"target":34962,"byteStride":8},{"buffer":0,"byteOffset":828,"byteLength":12,"target":34963},{"buffer":0,"byteOffset":840,"byteLength":48,"target":34962,"byteStride":12},{"buffer":0,"byteOffset":888,"byteLength":48,"target":34962,"byteStride":12},{"buffer":0,"byteOffset":936,"byteLength":32,"target":34962,"byteStride":8},{"buffer":0,"byteOffset":968,"byteLength":12,"target":34963},{"buffer":0,"byteOffset":980,"byteLength":48,"target":34962,"byteStride":12},{"buffer":0,"byteOffset":1028,"byteLength":48,"target":34962,"byteStride":12},{"buffer":0,"byteOffset":1076,"byteLength":32,"target":34962,"byteStride":8},{"buffer":0,"byteOffset":1108,"byteLength":12,"target":34963},{"buffer":0,"byteOffset":1120,"byteLength":48,"target":34962,"byteStride":12},{"buffer":0,"byteOffset":1168,"byteLength":48,"target":34962,"byteStride":12},{"buffer":0,"byteOffset":1216,"byteLength":32,"target":34962,"byteStride":8},{"buffer":0,"byteOffset":1248,"byteLength":12,"target":34963},{"buffer":0,"byteOffset":1260,"byteLength":288,"target":34962,"byteStride":12},{"buffer":0,"byteOffset":1548,"byteLength":288,"target":34962,"byteStride":12},{"buffer":0,"byteOffset":1836,"byteLength":192,"target":34962,"byteStride":8},{"buffer":0,"byteOffset":2028,"byteLength":72,"target":34963},{"buffer":0,"byteOffset":2100,"byteLength":288,"target":34962,"byteStride":12},{"buffer":0,"byteOffset":2388,"byteLength":288,"target":34962,"byteStride":12},{"buffer":0,"byteOffset":2676,"byteLength":192,"target":34962,"byteStride":8},{"buffer":0,"byteOffset":2868,"byteLength":72,"target":34963},{"buffer":0,"byteOffset":2940,"byteLength":288,"target":34962,"byteStride":12},{"buffer":0,"byteOffset":3228,"byteLength":288,"target":34962,"byteStride":12},{"buffer":0,"byteOffset":3516,"byteLength":192,"target":34962,"byteStride":8},{"buffer":0,"byteOffset":3708,"byteLength":72,"target":34963},{"buffer":0,"byteOffset":3780,"byteLength":288,"target":34962,"byteStride":12},{"buffer":0,"byteOffset":4068,"byteLength":288,"target":34962,"byteStride":12},{"buffer":0,"byteOffset":4356,"byteLength":192,"target":34962,"byteStride":8},{"buffer":0,"byteOffset":4548,"byteLength":72,"target":34963},{"buffer":0,"byteOffset":4620,"byteLength":288,"target":34962,"byteStride":12},{"buffer":0,"byteOffset":4908,"byteLength":288,"target":34962,"byteStride":12},{"buffer":0,"byteOffset":5196,"byteLength":192,"target":34962,"byteStride":8},{"buffer":0,"byteOffset":5388,"byteLength":72,"target":34963},{"buffer":0,"byteOffset":5460,"byteLength":192,"target":34962,"byteStride":12},{"buffer":0,"byteOffset":5652,"byteLength":192,"target":34962,"byteStride":12},{"buffer":0,"byteOffset":5844,"byteLength":128,"target":34962,"byteStride":8},{"buffer":0,"byteOffset":5972,"byteLength":36,"target":34963},{"buffer":0,"byteOffset":6008,"byteLength":192,"target":34962,"byteStride":12},{"buffer":0,"byteOffset":6200,"byteLength":192,"target":34962,"byteStride":12},{"buffer":0,"byteOffset":6392,"byteLength":128,"target":34962,"byteStride":8},{"buffer":0,"byteOffset":6520,"byteLength":36,"target":34963},{"buffer":0,"byteOffset":6556,"byteLength":192,"target":34962,"byteStride":12},{"buffer":0,"byteOffset":6748,"byteLength":192,"target":34962,"byteStride":12},{"buffer":0,"byteOffset":6940,"byteLength":128,"target":34962,"byteStride":8},{"buffer":0,"byteOffset":7068,"byteLength":36,"target":34963},{"buffer":0,"byteOffset":7104,"byteLength":3168,"target":34962,"byteStride":12},{"buffer":0,"byteOffset":10272,"byteLength":3168,"target":34962,"byteStride":12},{"buffer":0,"byteOffset":13440,"byteLength":2112,"target":34962,"byteStride":8},{"buffer":0,"byteOffset":15552,"byteLength":720,"target":34963},{"buffer":0,"byteOffset":16272,"byteLength":3168,"target":34962,"byteStride":12},{"buffer":0,"byteOffset":19440,"byteLength":3168,"target":34962,"byteStride":12},{"buffer":0,"byteOffset":22608,"byteLength":2112,"target":34962,"byteStride":8},{"buffer":0,"byteOffset":24720,"byteLength":720,"target":34963},{"buffer":0,"byteOffset":25440,"byteLength":3168,"target":34962,"byteStride":12},{"buffer":0,"byteOffset":28608,"byteLength":3168,"target":34962,"byteStride":12},{"buffer":0,"byteOffset":31776,"byteLength":2112,"target":34962,"byteStride":8},{"buffer":0,"byteOffset":33888,"byteLength":720,"target":34963},{"buffer":0,"byteOffset":34608,"byteLength":3168,"target":34962,"byteStride":12},{"buffer":0,"byteOffset":37776,"byteLength":3168,"target":34962,"byteStride":12},{"buffer":0,"byteOffset":40944,"byteLength":2112,"target":34962,"byteStride":8},{"buffer":0,"byteOffset":43056,"byteLength":720,"target":34963},{"buffer":0,"byteOffset":43776,"byteLength":1536,"target":34962,"byteStride":12},{"buffer":0,"byteOffset":45312,"byteLength":1536,"target":34962,"byteStride":12},{"buffer":0,"byteOffset":46848,"byteLength":1024,"target":34962,"byteStride":8},{"buffer":0,"byteOffset":47872,"byteLength":384,"target":34963},{"buffer":0,"byteOffset":48256,"byteLength":7680,"target":34962,"byteStride":12},{"buffer":0,"byteOffset":55936,"byteLength":7680,"target":34962,"byteStride":12},{"buffer":0,"byteOffset":63616,"byteLength":5120,"target":34962,"byteStride":8},{"buffer":0,"byteOffset":68736,"byteLength":1920,"target":34963},{"buffer":0,"byteOffset":70656,"byteLength":288,"target":34962,"byteStride":12},{"buffer":0,"byteOffset":70944,"byteLength":288,"target":34962,"byteStride":12},{"buffer":0,"byteOffset":71232,"byteLength":192,"target":34962,"byteStride":8},{"buffer":0,"byteOffset":71424,"byteLength":72,"target":34963},{"buffer":0,"byteOffset":71496,"byteLength":288,"target":34962,"byteStride":12},{"buffer":0,"byteOffset":71784,"byteLength":288,"target":34962,"byteStride":12},{"buffer":0,"byteOffset":72072,"byteLength":192,"target":34962,"byteStride":8},{"buffer":0,"byteOffset":72264,"byteLength":72,"target":34963}],"buffers":[{"byteLength":72336,"uri":"data:application/octet-stream;base64,"}],"accessors":[{"bufferView":0,"componentType":5126,"count":4,"max":[32,0,32],"min":[-32,0,-32],"type":"VEC3"},{"bufferView":1,"componentType":5126,"count":4,"max":[0,1,0],"min":[0,1,0],"type":"VEC3"},{"bufferView":2,"componentType":5126,"count":4,"max":[1,1],"min":[0,0],"type":"VEC2"},{"bufferView":3,"componentType":5123,"count":6,"max":[3],"min":[0],"type":"SCALAR"},{"bufferView":4,"componentType":5126,"count":4,"max":[32,0,32],"min":[-32,0,-32],"type":"VEC3"},{"bufferView":5,"componentType":5126,"count":4,"max":[0,1,0],"min":[0,1,0],"type":"VEC3"},{"bufferView":6,"componentType":5126,"count":4,"max":[1,1],"min":[0,0],"type":"VEC2"},{"bufferView":7,"componentType":5123,"count":6,"max":[3],"min":[0],"type":"SCALAR"},{"bufferView":8,"componentType":5126,"count":4,"max":[32,0,32],"min":[-32,0,-32],"type":"VEC3"},{"bufferView":9,"componentType":5126,"count":4,"max":[0,1,0],"min":[0,1,0],"type":"VEC3"},{"bufferView":10,"componentType":5126,"count":4,"max":[1,1],"min":[0,0],"type":"VEC2"},{"bufferView":11,"componentType":5123,"count":6,"max":[3],"min":[0],"type":"SCALAR"},{"bufferView":12,"componentType":5126,"count":4,"max":[32,0,32],"min":[-32,0,-32],"type":"VEC3"},{"bufferView":13,"componentType":5126,"count":4,"max":[0,1,0],"min":[0,1,0],"type":"VEC3"},{"bufferView":14,"componentType":5126,"count":4,"max":[1,1],"min":[0,0],"type":"VEC2"},{"bufferView":15,"componentType":5123,"count":6,"max":[3],"min":[0],"type":"SCALAR"},{"bufferView":16,"componentType":5126,"count":4,"max":[32,0,32],"min":[-32,0,-32],"type":"VEC3"},{"bufferView":17,"componentType":5126,"count":4,"max":[0,1,0],"min":[0,1,0],"type":"VEC3"},{"bufferView":18,"componentType":5126,"count":4,"max":[1,1],"min":[0,0],"type":"VEC2"},{"bufferView":19,"componentType":5123,"count":6,"max":[3],"min":[0],"type":"SCALAR"},{"bufferView":20,"componentType":5126,"count":4,"max":[32,0,32],"min":[-32,0,-32],"type":"VEC3"},{"bufferView":21,"componentType":5126,"count":4,"max":[0,1,0],"min":[0,1,0],"type":"VEC3"},{"bufferView":22,"componentType":5126,"count":4,"max":[1,1],"min":[0,0],"type":"VEC2"},{"bufferView":23,"componentType":5123,"count":6,"max":[3],"min":[0],"type":"SCALAR"},{"bufferView":24,"componentType":5126,"count":4,"max":[32,0,32],"min":[-32,0,-32],"type":"VEC3"},{"bufferView":25,"componentType":5126,"count":4,"max":[0,1,0],"min":[0,1,0],"type":"VEC3"},{"bufferView":26,"componentType":5126,"count":4,"max":[1,1],"min":[0,0],"type":"VEC2"},{"bufferView":27,"componentType":5123,"count":6,"max":[3],"min":[0],"type":"SCALAR"},{"bufferView":28,"componentType":5126,"count":4,"max":[32,0,32],"min":[-32,0,-32],"type":"VEC3"},{"bufferView":29,"componentType":5126,"count":4,"max":[0,1,0],"min":[0,1,0],"type":"VEC3"},{"bufferView":30,"componentType":5126,"count":4,"max":[1,1],"min":[0,0],"type":"VEC2"},{"bufferView":31,"componentType":5123,"count":6,"max":[3],"min":[0],"type":"SCALAR"},{"bufferView":32,"componentType":5126,"count":4,"max":[32,0,32],"min":[-32,0,-32],"type":"VEC3"},{"bufferView":33,"componentType":5126,"count":4,"max":[0,1,0],"min":[0,1,0],"type":"VEC3"},{"bufferView":34,"componentType":5126,"count":4,"max":[1,1],"min":[0,0],"type":"VEC2"},{"bufferView":35,"componentType":5123,"count":6,"max":[3],"min":[0],"type":"SCALAR"},{"bufferView":36,"componentType":5126,"count":24,"max":[4,16,4],"min":[-4,0,-4],"type":"VEC3"},{"bufferView":37,"componentType":5126,"count":24,"max":[1,1,1],"min":[-1,-1,-1],"type":"VEC3"},{"bufferView":38,"componentType":5126,"count":24,"max":[0.015625,0.03125],"min":[0,0],"type":"VEC2"},{"bufferView":39,"componentType":5123,"count":36,"max":[23],"min":[0],"type":"SCALAR"},{"bufferView":40,"componentType":5126,"count":24,"max":[4,12,4],"min":[-4,0,-4],"type":"VEC3"},{"bufferView":41,"componentType":5126,"count":24,"max":[1,1,1],"min":[-1,-1,-1],"type":"VEC3"},{"bufferView":42,"componentType":5126,"count":24,"max":[0.015625,0.0234375],"min":[0,0],"type":"VEC2"},{"bufferView":43,"componentType":5123,"count":36,"max":[23],"min":[0],"type":"SCALAR"},{"bufferView":44,"componentType":5126,"count":24,"max":[4,8,4],"min":[-4,0,-4],"type":"VEC3"},{"bufferView":45,"componentType":5126,"count":24,"max":[1,1,1],"min":[-1,-1,-1],"type":"VEC3"},{"bufferView":46,"componentType":5126,"count":24,"max":[0.015625,0.015625],"min":[0,0],"type":"VEC2"},{"bufferView":47,"componentType":5123,"count":36,"max":[23],"min":[0],"type":"SCALAR"},{"bufferView":48,"componentType":5126,"count":24,"max":[4,24,4],"min":[-4,0,-4],"type":"VEC3"},{"bufferView":49,"componentType":5126,"count":24,"max":[1,1,1],"min":[-1,-1,-1],"type":"VEC3"},{"bufferView":50,"componentType":5126,"count":24,"max":[0.015625,0.03125],"min":[0,0],"type":"VEC2"},{"bufferView":51,"componentType":5123,"count":36,"max":[23],"min":[0],"type":"SCALAR"},{"bufferView":52,"componentType":5126,"count":24,"max":[4,4,4],"min":[-4,0,-4],"type":"VEC3"},{"bufferView":53,"componentType":5126,"count":24,"max":[1,1,1],"min":[-1,-1,-1],"type":"VEC3"},{"bufferView":54,"componentType":5126,"count":24,"max":[0.015625,0.015625],"min":[0,0],"type":"VEC2"},{"bufferView":55,"componentType":5123,"count":36,"max":[23],"min":[0],"type":"SCALAR"},{"bufferView":56,"componentType":5126,"count":16,"max":[10,16,10],"min":[-10,-4,-10],"type":"VEC3"},{"bufferView":57,"componentType":5126,"count":16,"max":[0.8944271802902222,0.4472135901451111,0.8944271802902222],"min":[-0.8944271802902222,-1,-0.8944271802902222],"type":"VEC3"},{"bufferView":58,"componentType":5126,"count":16,"max":[0.0234375,0.026203930377960205],"min":[0,0],"type":"VEC2"},{"bufferView":59,"componentType":5123,"count":18,"max":[15],"min":[0],"type":"SCALAR"},{"bufferView":60,"componentType":5126,"count":16,"max":[14,20,14],"min":[-14,-8,-14],"type":"VEC3"},{"bufferView":61,"componentType":5126,"count":16,"max":[0.8944271802902222,0.4472135901451111,0.8944271802902222],"min":[-0.8944271802902222,-1,-0.8944271802902222],"type":"VEC3"},{"bufferView":62,"componentType":5126,"count":16,"max":[0.0234375,0.026203930377960205],"min":[0,0],"type":"VEC2"},{"bufferView":63,"componentType":5123,"count":18,"max":[15],"min":[0],"type":"SCALAR"},{"bufferView":64,"componentType":5126,"count":16,"max":[18,24,18],"min":[-18,-12,-18],"type":"VEC3"},{"bufferView":65,"componentType":5126,"count":16,"max":[0.8944271802902222,0.4472135901451111,0.8944271802902222],"min":[-0.8944271802902222,-1,-0.8944271802902222],"type":"VEC3"},{"bufferView":66,"componentType":5126,"count":16,"max":[0.0234375,0.026203930377960205],"min":[0,0],"type":"VEC2"},{"bufferView":67,"componentType":5123,"count":18,"max":[15],"min":[0],"type":"SCALAR"},{"bufferView":68,"componentType":5126,"count":264,"max":[16,16,16],"min":[-16,-16,-16],"type":"VEC3"},{"bufferView":69,"componentType":5126,"count":264,"max":[0.9659258127212524,0.9659258127212524,0.9659258127212524],"min":[-0.9659258127212524,-0.9659258127212524,-0.9659258127212524],"type":"VEC3"},{"bufferView":70,"componentType":5126,"count":264,"max":[0.016746874898672104,0.016176581382751465],"min":[0,0],"type":"VEC2"},{"bufferView":71,"componentType":5123,"count":360,"max":[263],"min":[0],"type":"SCALAR"},{"bufferView":72,"componentType":5126,"count":264,"max":[12,12,12],"min":[-12,-12,-12],"type":"VEC3"},{"bufferView":73,"componentType":5126,"count":264,"max":[0.9659258127212524,0.9659258127212524,0.9659258127212524],"min":[-0.9659258127212524,-0.9659258127212524,-0.9659258127212524],"type":"VEC3"},{"bufferView":74,"componentType":5126,"count":264,"max":[0.016746874898672104,0.016176581382751465],"min":[0,0],"type":"VEC2"},{"bufferView":75,"componentType":5123,"count":360,"max":[263],"min":[0],"type":"SCALAR"},{"bufferView":76,"componentType":5126,"count":264,"max":[8,8,8],"min":[-8,-8,-8],"type":"VEC3"},{"bufferView":77,"componentType":5126,"count":264,"max":[0.9659258127212524,0.9659258127212524,0.9659258127212524],"min":[-0.9659258127212524,-0.9659258127212524,-0.9659258127212524],"type":"VEC3"},{"bufferView":78,"componentType":5126,"count":264,"max":[0.016746874898672104,0.016176581382751465],"min":[0,0],"type":"VEC2"},{"bufferView":79,"componentType":5123,"count":360,"max":[263],"min":[0],"type":"SCALAR"},{"bufferView":80,"componentType":5126,"count":264,"max":[4,4,4],"min":[-4,-4,-4],"type":"VEC3"},{"bufferView":81,"componentType":5126,"count":264,"max":[0.9659258127212524,0.9659258127212524,0.9659258127212524],"min":[-0.9659258127212524,-0.9659258127212524,-0.9659258127212524],"type":"VEC3"},{"bufferView":82,"componentType":5126,"count":264,"max":[0.016746874898672104,0.016176581382751465],"min":[0,0],"type":"VEC2"},{"bufferView":83,"componentType":5123,"count":360,"max":[263],"min":[0],"type":"SCALAR"},{"bufferView":84,"componentType":5126,"count":128,"max":[28,64,28],"min":[-28,0,-28],"type":"VEC3"},{"bufferView":85,"componentType":5126,"count":128,"max":[1,1,1],"min":[-1,-1,-1],"type":"VEC3"},{"bufferView":86,"componentType":5126,"count":128,"max":[0.045304685831069946,0.125],"min":[0,0],"type":"VEC2"},{"bufferView":87,"componentType":5123,"count":192,"max":[127],"min":[0],"type":"SCALAR"},{"bufferView":88,"componentType":5126,"count":640,"max":[41.51056671142578,10.195911407470703,41.51056671142578],"min":[-41.51056671142578,-10.195911407470703,-41.51056671142578],"type":"VEC3"},{"bufferView":89,"componentType":5126,"count":640,"max":[1,0.9492649435997009,1],"min":[-1,-0.9492649435997009,-1],"type":"VEC3"},{"bufferView":90,"componentType":5126,"count":640,"max":[0.03225312381982803,0.012307822704315186],"min":[0,0],"type":"VEC2"},{"bufferView":91,"componentType":5123,"count":960,"max":[639],"min":[0],"type":"SCALAR"},{"bufferView":92,"componentType":5126,"count":24,"max":[0,16,0],"min":[-4,-8,-4],"type":"VEC3"},{"bufferView":93,"componentType":5126,"count":24,"max":[1,1,1],"min":[-1,-1,-1],"type":"VEC3"},{"bufferView":94,"componentType":5126,"count":24,"max":[0.0078125,0.03125],"min":[0,0],"type":"VEC2"},{"bufferView":95,"componentType":5123,"count":36,"max":[23],"min":[0],"type":"SCALAR"},{"bufferView":96,"componentType":5126,"count":24,"max":[0,24,0],"min":[-4,0,-4],"type":"VEC3"},{"bufferView":97,"componentType":5126,"count":24,"max":[1,1,1],"min":[-1,-1,-1],"type":"VEC3"},{"bufferView":98,"componentType":5126,"count":24,"max":[0.0078125,0.03125],"min":[0,0],"type":"VEC2"},{"bufferView":99,"componentType":5123,"count":36,"max":[23],"min":[0],"type":"SCALAR"}],"materials":[{"pbrMetallicRoughness":{"metallicFactor":0,"roughnessFactor":1,"baseColorTexture":{"index":0}},"alphaMode":"MASK","alphaCutoff":0.05,"doubleSided":true},{"pbrMetallicRoughness":{"metallicFactor":0,"roughnessFactor":1,"baseColorTexture":{"index":1}},"alphaMode":"MASK","alphaCutoff":0.05,"doubleSided":true},{"pbrMetallicRoughness":{"metallicFactor":0,"roughnessFactor":1,"baseColorTexture":{"index":2}},"alphaMode":"MASK","alphaCutoff":0.05,"doubleSided":true},{"pbrMetallicRoughness":{"metallicFactor":0,"roughnessFactor":1,"baseColorTexture":{"index":3}},"alphaMode":"MASK","alphaCutoff":0.05,"doubleSided":true},{"pbrMetallicRoughness":{"metallicFactor":0,"roughnessFactor":1,"baseColorTexture":{"index":4}},"alphaMode":"MASK","alphaCutoff":0.05,"doubleSided":true},{"pbrMetallicRoughness":{"metallicFactor":0,"roughnessFactor":1,"baseColorTexture":{"index":5}},"alphaMode":"MASK","alphaCutoff":0.05,"doubleSided":true},{"pbrMetallicRoughness":{"metallicFactor":0,"roughnessFactor":1,"baseColorTexture":{"index":6}},"alphaMode":"MASK","alphaCutoff":0.05,"doubleSided":true}],"textures":[{"sampler":0,"source":0,"name":"playtest_map.png"},{"sampler":1,"source":1,"name":"playtest_map_cube.png"},{"sampler":2,"source":2,"name":"playtest_map_pyramid.png"},{"sampler":3,"source":3,"name":"playtest_map_ball.png"},{"sampler":4,"source":4,"name":"playtest_map_tunel.png"},{"sampler":5,"source":5,"name":"playtest_map_taurus.png"},{"sampler":6,"source":6,"name":"playtest_map_cross.png"}],"samplers":[{"magFilter":9728,"minFilter":9728,"wrapS":33071,"wrapT":33071},{"magFilter":9728,"minFilter":9728,"wrapS":33071,"wrapT":33071},{"magFilter":9728,"minFilter":9728,"wrapS":33071,"wrapT":33071},{"magFilter":9728,"minFilter":9728,"wrapS":33071,"wrapT":33071},{"magFilter":9728,"minFilter":9728,"wrapS":33071,"wrapT":33071},{"magFilter":9728,"minFilter":9728,"wrapS":33071,"wrapT":33071},{"magFilter":9728,"minFilter":9728,"wrapS":33071,"wrapT":33071}],"images":[{"mimeType":"image/png","uri":"data:image/png;base64,"},{"mimeType":"image/png","uri":"data:image/png;base64,"},{"mimeType":"image/png","uri":"data:image/png;base64,"},{"mimeType":"image/png","uri":"data:image/png;base64,"},{"mimeType":"image/png","uri":"data:image/png;base64,"},{"mimeType":"image/png","uri":"data:image/png;base64,"},{"mimeType":"image/png","uri":"data:image/png;base64,"}],"meshes":[{"primitives":[{"mode":4,"attributes":{"POSITION":0,"NORMAL":1,"TEXCOORD_0":2},"indices":3,"material":0}]},{"primitives":[{"mode":4,"attributes":{"POSITION":4,"NORMAL":5,"TEXCOORD_0":6},"indices":7,"material":0}]},{"primitives":[{"mode":4,"attributes":{"POSITION":8,"NORMAL":9,"TEXCOORD_0":10},"indices":11,"material":0}]},{"primitives":[{"mode":4,"attributes":{"POSITION":12,"NORMAL":13,"TEXCOORD_0":14},"indices":15,"material":0}]},{"primitives":[{"mode":4,"attributes":{"POSITION":16,"NORMAL":17,"TEXCOORD_0":18},"indices":19,"material":0}]},{"primitives":[{"mode":4,"attributes":{"POSITION":20,"NORMAL":21,"TEXCOORD_0":22},"indices":23,"material":0}]},{"primitives":[{"mode":4,"attributes":{"POSITION":24,"NORMAL":25,"TEXCOORD_0":26},"indices":27,"material":0}]},{"primitives":[{"mode":4,"attributes":{"POSITION":28,"NORMAL":29,"TEXCOORD_0":30},"indices":31,"material":0}]},{"primitives":[{"mode":4,"attributes":{"POSITION":32,"NORMAL":33,"TEXCOORD_0":34},"indices":35,"material":0}]},{"primitives":[{"mode":4,"attributes":{"POSITION":36,"NORMAL":37,"TEXCOORD_0":38},"indices":39,"material":1}]},{"primitives":[{"mode":4,"attributes":{"POSITION":40,"NORMAL":41,"TEXCOORD_0":42},"indices":43,"material":1}]},{"primitives":[{"mode":4,"attributes":{"POSITION":44,"NORMAL":45,"TEXCOORD_0":46},"indices":47,"material":1}]},{"primitives":[{"mode":4,"attributes":{"POSITION":48,"NORMAL":49,"TEXCOORD_0":50},"indices":51,"material":1}]},{"primitives":[{"mode":4,"attributes":{"POSITION":52,"NORMAL":53,"TEXCOORD_0":54},"indices":55,"material":1}]},{"primitives":[{"mode":4,"attributes":{"POSITION":56,"NORMAL":57,"TEXCOORD_0":58},"indices":59,"material":2}]},{"primitives":[{"mode":4,"attributes":{"POSITION":60,"NORMAL":61,"TEXCOORD_0":62},"indices":63,"material":2}]},{"primitives":[{"mode":4,"attributes":{"POSITION":64,"NORMAL":65,"TEXCOORD_0":66},"indices":67,"material":2}]},{"primitives":[{"mode":4,"attributes":{"POSITION":68,"NORMAL":69,"TEXCOORD_0":70},"indices":71,"material":3}]},{"primitives":[{"mode":4,"attributes":{"POSITION":72,"NORMAL":73,"TEXCOORD_0":74},"indices":75,"material":3}]},{"primitives":[{"mode":4,"attributes":{"POSITION":76,"NORMAL":77,"TEXCOORD_0":78},"indices":79,"material":3}]},{"primitives":[{"mode":4,"attributes":{"POSITION":80,"NORMAL":81,"TEXCOORD_0":82},"indices":83,"material":3}]},{"primitives":[{"mode":4,"attributes":{"POSITION":84,"NORMAL":85,"TEXCOORD_0":86},"indices":87,"material":4}]},{"primitives":[{"mode":4,"attributes":{"POSITION":88,"NORMAL":89,"TEXCOORD_0":90},"indices":91,"material":5}]},{"primitives":[{"mode":4,"attributes":{"POSITION":92,"NORMAL":93,"TEXCOORD_0":94},"indices":95,"material":6}]},{"primitives":[{"mode":4,"attributes":{"POSITION":96,"NORMAL":97,"TEXCOORD_0":98},"indices":99,"material":6}]}]}