{"asset":{"version":"2.0","generator":"Blockbench 4.12.3 glTF exporter"},"scenes":[{"nodes":[1],"name":"blockbench_export"}],"scene":0,"nodes":[{"name":"pokeball"},{"translation":[0,-3,-10],"name":"pokeball","mesh":0,"children":[0],"skin":0}],"bufferViews":[{"buffer":0,"byteOffset":0,"byteLength":7656,"target":34962,"byteStride":12},{"buffer":0,"byteOffset":7656,"byteLength":7656,"target":34962,"byteStride":12},{"buffer":0,"byteOffset":15312,"byteLength":5104,"target":34962,"byteStride":8},{"buffer":0,"byteOffset":20416,"byteLength":5104,"target":34962,"byteStride":8},{"buffer":0,"byteOffset":25520,"byteLength":10208,"target":34962,"byteStride":16},{"buffer":0,"byteOffset":35728,"byteLength":1788,"target":34963},{"buffer":0,"byteOffset":37516,"byteLength":64}],"buffers":[{"byteLength":37580,"uri":"data:application/octet-stream;base64,"}],"accessors":[{"bufferView":0,"componentType":5126,"count":638,"max":[2,5,12.050000190734863],"min":[-2,1,7.978119850158691],"type":"VEC3"},{"bufferView":1,"componentType":5126,"count":638,"max":[1,0.9789503812789917,1],"min":[-1,-1,-1],"type":"VEC3"},{"bufferView":2,"componentType":5126,"count":638,"max":[1,1],"min":[0,0],"type":"VEC2"},{"bufferView":3,"componentType":5123,"count":638,"max":[0,0,0,0],"min":[0,0,0,0],"type":"VEC4"},{"bufferView":4,"componentType":5126,"count":638,"max":[0,1,0,0],"min":[0,1,0,0],"type":"VEC4"},{"bufferView":5,"componentType":5123,"count":894,"max":[637],"min":[0],"type":"SCALAR"},{"bufferView":6,"componentType":5126,"count":1,"max":[1,0,0,0,0,1,0,0,0,0,1,0,0,0,0,1],"min":[1,0,0,0,0,1,0,0,0,0,1,0,0,0,0,1],"type":"MAT4"}],"materials":[{"pbrMetallicRoughness":{"metallicFactor":0,"roughnessFactor":1,"baseColorTexture":{"index":0}},"alphaMode":"MASK","alphaCutoff":0.05,"doubleSided":true}],"textures":[{"sampler":0,"source":0,"name":"texture_pokeball.png"}],"samplers":[{"magFilter":9728,"minFilter":9728,"wrapS":33071,"wrapT":33071}],"images":[{"mimeType":"image/png","uri":"data:image/png;base64,"}],"meshes":[{"primitives":[{"mode":4,"attributes":{"POSITION":0,"NORMAL":1,"TEXCOORD_0":2,"JOINTS_0":3,"WEIGHTS_0":4},"indices":5,"material":0}]}],"skins":[{"inverseBindMatrices":6,"joints":[0],"skeleton":0}]}