{"asset":{"version":"2.0","generator":"Blockbench 4.12.6 glTF exporter"},"scenes":[{"nodes":[9],"name":"blockbench_export"}],"scene":0,"nodes":[{"rotation":[-0.043619387365336,0,0,0.9990482215818578],"name":"sphere","mesh":0},{"rotation":[0.043619387365336,0,0,0.9990482215818578],"translation":[0,-0.5625,-0.15625],"name":"circle","mesh":1},{"translation":[-0.0625,-0.375,0.375],"name":"branch","children":[0,1]},{"rotation":[0.043619387365336,0,0,0.9990482215818578],"translation":[-0.046875,-0.5625,-0.15625],"name":"circle","mesh":2},{"rotation":[-0.043619387365336,0,0,0.9990482215818578],"name":"sphere","mesh":3},{"rotation":[-0.010492714696891598,-0.8765181184813302,0.019125693382483093,-0.48087430661751696],"translation":[0.15625,-0.1875,-0.1875],"name":"branch2","children":[3,4]},{"translation":[-0.0625,-3.0625,0],"name":"circle","mesh":4},{"translation":[-0.0625,0,0],"name":"sphere","mesh":5},{"translation":[0.0625,3,0],"name":"main","children":[2,5,6,7]},{"children":[8]}],"bufferViews":[{"buffer":0,"byteOffset":0,"byteLength":2160,"target":34962,"byteStride":12},{"buffer":0,"byteOffset":2160,"byteLength":2160,"target":34962,"byteStride":12},{"buffer":0,"byteOffset":4320,"byteLength":1440,"target":34962,"byteStride":8},{"buffer":0,"byteOffset":5760,"byteLength":480,"target":34963},{"buffer":0,"byteOffset":6240,"byteLength":792,"target":34962,"byteStride":12},{"buffer":0,"byteOffset":7032,"byteLength":792,"target":34962,"byteStride":12},{"buffer":0,"byteOffset":7824,"byteLength":528,"target":34962,"byteStride":8},{"buffer":0,"byteOffset":8352,"byteLength":180,"target":34963},{"buffer":0,"byteOffset":8532,"byteLength":1080,"target":34962,"byteStride":12},{"buffer":0,"byteOffset":9612,"byteLength":1080,"target":34962,"byteStride":12},{"buffer":0,"byteOffset":10692,"byteLength":720,"target":34962,"byteStride":8},{"buffer":0,"byteOffset":11412,"byteLength":252,"target":34963},{"buffer":0,"byteOffset":11664,"byteLength":2160,"target":34962,"byteStride":12},{"buffer":0,"byteOffset":13824,"byteLength":2160,"target":34962,"byteStride":12},{"buffer":0,"byteOffset":15984,"byteLength":1440,"target":34962,"byteStride":8},{"buffer":0,"byteOffset":17424,"byteLength":480,"target":34963},{"buffer":0,"byteOffset":17904,"byteLength":2268,"target":34962,"byteStride":12},{"buffer":0,"byteOffset":20172,"byteLength":2268,"target":34962,"byteStride":12},{"buffer":0,"byteOffset":22440,"byteLength":1512,"target":34962,"byteStride":8},{"buffer":0,"byteOffset":23952,"byteLength":548,"target":34963},{"buffer":0,"byteOffset":24500,"byteLength":2160,"target":34962,"byteStride":12},{"buffer":0,"byteOffset":26660,"byteLength":2160,"target":34962,"byteStride":12},{"buffer":0,"byteOffset":28820,"byteLength":1440,"target":34962,"byteStride":8},{"buffer":0,"byteOffset":30260,"byteLength":480,"target":34963}],"buffers":[{"byteLength":30740,"uri":"data:application/octet-stream;base64,"}],"accessors":[{"bufferView":0,"componentType":5126,"count":180,"max":[0.28125,0.40625,0.23011687397956848],"min":[-0.28125,-0.40625,-0.23011687397956848],"type":"VEC3"},{"bufferView":1,"componentType":5126,"count":180,"max":[0.9355021119117737,0.9025302529335022,1],"min":[-0.9355021119117737,-0.9025302529335022,-1],"type":"VEC3"},{"bufferView":2,"componentType":5126,"count":180,"max":[0.25107499957084656,0.25107502937316895],"min":[0,0],"type":"VEC2"},{"bufferView":3,"componentType":5123,"count":240,"max":[179],"min":[0],"type":"SCALAR"},{"bufferView":4,"componentType":5126,"count":66,"max":[0.1022968739271164,0.8176912665367126,0.2350468784570694],"min":[-0.1022968739271164,-0.9282862544059753,-0.08345687389373779],"type":"VEC3"},{"bufferView":5,"componentType":5126,"count":66,"max":[0.8216062784194946,0.9998170137405396,0.9893040657043457],"min":[-0.8212575912475586,-0.25551465153694153,-0.9969030618667603],"type":"VEC3"},{"bufferView":6,"componentType":5126,"count":66,"max":[0.1804250031709671,0.15625],"min":[0,0],"type":"VEC2"},{"bufferView":7,"componentType":5123,"count":90,"max":[65],"min":[0],"type":"SCALAR"},{"bufferView":8,"componentType":5126,"count":90,"max":[0.0710468739271164,0.8465393781661987,0.22393375635147095],"min":[-0.0710468739271164,-0.5816818475723267,0.03962500020861626],"type":"VEC3"},{"bufferView":9,"componentType":5126,"count":90,"max":[0.9149414896965027,0.5693607330322266,0.99993896484375],"min":[-0.9142455458641052,-0.5683808326721191,-1],"type":"VEC3"},{"bufferView":10,"componentType":5126,"count":90,"max":[0.1804250031709671,0.15625],"min":[0,0],"type":"VEC2"},{"bufferView":11,"componentType":5123,"count":126,"max":[89],"min":[0],"type":"SCALAR"},{"bufferView":12,"componentType":5126,"count":180,"max":[0.234375,0.328125,0.18324187397956848],"min":[-0.234375,-0.328125,-0.18324187397956848],"type":"VEC3"},{"bufferView":13,"componentType":5126,"count":180,"max":[0.9299919605255127,0.9066954851150513,1],"min":[-0.9299919605255127,-0.9066954851150513,-1],"type":"VEC3"},{"bufferView":14,"componentType":5126,"count":180,"max":[0.25107499957084656,0.25107502937316895],"min":[0,0],"type":"VEC2"},{"bufferView":15,"componentType":5123,"count":240,"max":[179],"min":[0],"type":"SCALAR"},{"bufferView":16,"componentType":5126,"count":189,"max":[0.1516675055027008,3.0693981647491455,0.15625],"min":[-0.15601687133312225,0,-0.1421743780374527],"type":"VEC3"},{"bufferView":17,"componentType":5126,"count":189,"max":[0.9823331236839294,0.967666506767273,1],"min":[-0.9747005105018616,-0.07917925715446472,-0.9619846343994141],"type":"VEC3"},{"bufferView":18,"componentType":5126,"count":189,"max":[0.17342250049114227,0.17342501878738403],"min":[0,0],"type":"VEC2"},{"bufferView":19,"componentType":5123,"count":273,"max":[188],"min":[0],"type":"SCALAR"},{"bufferView":20,"componentType":5126,"count":180,"max":[0.34375,0.59375,0.2926168739795685],"min":[-0.34375,-0.59375,-0.2926168739795685],"type":"VEC3"},{"bufferView":21,"componentType":5126,"count":180,"max":[0.9399800300598145,0.8695847988128662,1],"min":[-0.9399800300598145,-0.8695847988128662,-1],"type":"VEC3"},{"bufferView":22,"componentType":5126,"count":180,"max":[0.25107499957084656,0.25107502937316895],"min":[0,0],"type":"VEC2"},{"bufferView":23,"componentType":5123,"count":240,"max":[179],"min":[0],"type":"SCALAR"}],"materials":[{"pbrMetallicRoughness":{"metallicFactor":0,"roughnessFactor":1},"alphaMode":"MASK","alphaCutoff":0.05,"doubleSided":true},{"pbrMetallicRoughness":{"metallicFactor":0,"roughnessFactor":1},"alphaMode":"MASK","alphaCutoff":0.05,"doubleSided":true}],"meshes":[{"primitives":[{"mode":4,"attributes":{"POSITION":0,"NORMAL":1,"TEXCOORD_0":2},"indices":3,"material":0}]},{"primitives":[{"mode":4,"attributes":{"POSITION":4,"NORMAL":5,"TEXCOORD_0":6},"indices":7,"material":1}]},{"primitives":[{"mode":4,"attributes":{"POSITION":8,"NORMAL":9,"TEXCOORD_0":10},"indices":11,"material":1}]},{"primitives":[{"mode":4,"attributes":{"POSITION":12,"NORMAL":13,"TEXCOORD_0":14},"indices":15,"material":0}]},{"primitives":[{"mode":4,"attributes":{"POSITION":16,"NORMAL":17,"TEXCOORD_0":18},"indices":19,"material":1}]},{"primitives":[{"mode":4,"attributes":{"POSITION":20,"NORMAL":21,"TEXCOORD_0":22},"indices":23,"material":0}]}]}