{"asset":{"version":"2.0","generator":"Blockbench 4.12.6 glTF exporter"},"scenes":[{"nodes":[15],"name":"blockbench_export"}],"scene":0,"nodes":[{"rotation":[0,0,-0.40274668985873724,0.9153114791194471],"translation":[0.0625,1.8125,-0.3125],"name":"sphere","mesh":0},{"rotation":[0.14789067751951568,-0.034248004996909664,-0.27730020908272135,0.9487149285740313],"name":"cylinder","mesh":1},{"rotation":[0.12854318948283924,-0.022665669890180807,-0.17216263787008915,0.9763825797133113],"translation":[0.375,0.6875,0.3125],"name":"sphere","mesh":2},{"translation":[0.125,1.4375,0],"name":"Branch0","children":[1,2]},{"rotation":[-0.021809693682668,0.0004758892090711187,0.021809693682668,0.999524110790929],"name":"cylinder","mesh":3},{"rotation":[0,0,-0.08715574274765817,0.9961946980917455],"translation":[-0.0625,0.6875,0],"name":"cylinder","mesh":4},{"translation":[0,0.1875,0],"name":"Trunc","children":[4,5]},{"rotation":[-0.15154448900617273,-0.013258461461861623,0.08614141045558348,0.9846004968799502],"translation":[0.375,-0.8125,0.375],"name":"cylinder","mesh":5},{"rotation":[0,0,-0.23768589232617307,0.9713420698132614],"translation":[0.4375,0.125,0.3125],"name":"sphere","mesh":6},{"rotation":[0,0,0.25881904510252074,0.9659258262890683],"name":"sphere","mesh":7},{"translation":[-0.5625,2.375,-0.375],"name":"Branch1","children":[7,8,9]},{"rotation":[0,0,-0.23768589232617307,0.9713420698132614],"translation":[0.3125,-0.1875,0.375],"name":"sphere","mesh":8},{"rotation":[-0.010904676503932058,-0.9304804724930567,0.13401194578895625,0.34077555183038055],"translation":[0.25,-0.8125,0.375],"name":"cylinder","mesh":9},{"rotation":[-0.6551001308976814,0.4638090557196709,0.07678082048221402,0.5914640174485226],"translation":[0.125,-0.3125,0.0625],"name":"sphere","mesh":10},{"rotation":[0.2738177871617291,-0.9151637157249949,-0.23940788653320988,0.17373271632014617],"translation":[-0.125,1.9375,0.8125],"name":"Branch2","children":[11,12,13]},{"children":[0,3,6,10,14]}],"bufferViews":[{"buffer":0,"byteOffset":0,"byteLength":1344,"target":34962,"byteStride":12},{"buffer":0,"byteOffset":1344,"byteLength":1344,"target":34962,"byteStride":12},{"buffer":0,"byteOffset":2688,"byteLength":896,"target":34962,"byteStride":8},{"buffer":0,"byteOffset":3584,"byteLength":288,"target":34963},{"buffer":0,"byteOffset":3872,"byteLength":960,"target":34962,"byteStride":12},{"buffer":0,"byteOffset":4832,"byteLength":960,"target":34962,"byteStride":12},{"buffer":0,"byteOffset":5792,"byteLength":640,"target":34962,"byteStride":8},{"buffer":0,"byteOffset":6432,"byteLength":192,"target":34963},{"buffer":0,"byteOffset":6624,"byteLength":2160,"target":34962,"byteStride":12},{"buffer":0,"byteOffset":8784,"byteLength":2160,"target":34962,"byteStride":12},{"buffer":0,"byteOffset":10944,"byteLength":1440,"target":34962,"byteStride":8},{"buffer":0,"byteOffset":12384,"byteLength":480,"target":34963},{"buffer":0,"byteOffset":12864,"byteLength":960,"target":34962,"byteStride":12},{"buffer":0,"byteOffset":13824,"byteLength":960,"target":34962,"byteStride":12},{"buffer":0,"byteOffset":14784,"byteLength":640,"target":34962,"byteStride":8},{"buffer":0,"byteOffset":15424,"byteLength":192,"target":34963},{"buffer":0,"byteOffset":15616,"byteLength":960,"target":34962,"byteStride":12},{"buffer":0,"byteOffset":16576,"byteLength":960,"target":34962,"byteStride":12},{"buffer":0,"byteOffset":17536,"byteLength":640,"target":34962,"byteStride":8},{"buffer":0,"byteOffset":18176,"byteLength":192,"target":34963},{"buffer":0,"byteOffset":18368,"byteLength":960,"target":34962,"byteStride":12},{"buffer":0,"byteOffset":19328,"byteLength":960,"target":34962,"byteStride":12},{"buffer":0,"byteOffset":20288,"byteLength":640,"target":34962,"byteStride":8},{"buffer":0,"byteOffset":20928,"byteLength":192,"target":34963},{"buffer":0,"byteOffset":21120,"byteLength":1344,"target":34962,"byteStride":12},{"buffer":0,"byteOffset":22464,"byteLength":1344,"target":34962,"byteStride":12},{"buffer":0,"byteOffset":23808,"byteLength":896,"target":34962,"byteStride":8},{"buffer":0,"byteOffset":24704,"byteLength":288,"target":34963},{"buffer":0,"byteOffset":24992,"byteLength":1344,"target":34962,"byteStride":12},{"buffer":0,"byteOffset":26336,"byteLength":1344,"target":34962,"byteStride":12},{"buffer":0,"byteOffset":27680,"byteLength":896,"target":34962,"byteStride":8},{"buffer":0,"byteOffset":28576,"byteLength":288,"target":34963},{"buffer":0,"byteOffset":28864,"byteLength":1344,"target":34962,"byteStride":12},{"buffer":0,"byteOffset":30208,"byteLength":1344,"target":34962,"byteStride":12},{"buffer":0,"byteOffset":31552,"byteLength":896,"target":34962,"byteStride":8},{"buffer":0,"byteOffset":32448,"byteLength":288,"target":34963},{"buffer":0,"byteOffset":32736,"byteLength":960,"target":34962,"byteStride":12},{"buffer":0,"byteOffset":33696,"byteLength":960,"target":34962,"byteStride":12},{"buffer":0,"byteOffset":34656,"byteLength":640,"target":34962,"byteStride":8},{"buffer":0,"byteOffset":35296,"byteLength":192,"target":34963},{"buffer":0,"byteOffset":35488,"byteLength":1344,"target":34962,"byteStride":12},{"buffer":0,"byteOffset":36832,"byteLength":1344,"target":34962,"byteStride":12},{"buffer":0,"byteOffset":38176,"byteLength":896,"target":34962,"byteStride":8},{"buffer":0,"byteOffset":39072,"byteLength":288,"target":34963}],"buffers":[{"byteLength":39360,"uri":"data:application/octet-stream;base64,"}],"accessors":[{"bufferView":0,"componentType":5126,"count":112,"max":[0.28125,0.34375,0.21875],"min":[-0.28125,-0.34375,-0.21875],"type":"VEC3"},{"bufferView":1,"componentType":5126,"count":112,"max":[0.9470892548561096,0.892181932926178,0.9669713377952576],"min":[-0.9470892548561096,-0.892181932926178,-0.9669713377952576],"type":"VEC3"},{"bufferView":2,"componentType":5126,"count":112,"max":[0.2847749888896942,0.2631000280380249],"min":[0,0],"type":"VEC2"},{"bufferView":3,"componentType":5123,"count":144,"max":[111],"min":[0],"type":"SCALAR"},{"bufferView":4,"componentType":5126,"count":80,"max":[0.25,0.625,0.25],"min":[-0.25,0.0625,-0.25],"type":"VEC3"},{"bufferView":5,"componentType":5126,"count":80,"max":[1,1,1],"min":[-1,-1,-1],"type":"VEC3"},{"bufferView":6,"componentType":5126,"count":80,"max":[0.270599365234375,0.6875],"min":[0,0],"type":"VEC2"},{"bufferView":7,"componentType":5123,"count":96,"max":[79],"min":[0],"type":"SCALAR"},{"bufferView":8,"componentType":5126,"count":180,"max":[0.625,0.5,0.41302812099456787],"min":[-0.625,-0.5,-0.41302812099456787],"type":"VEC3"},{"bufferView":9,"componentType":5126,"count":180,"max":[0.9058559536933899,0.9647201895713806,1],"min":[-0.9058559536933899,-0.9647201895713806,-1],"type":"VEC3"},{"bufferView":10,"componentType":5126,"count":180,"max":[0.3090125024318695,0.3090124726295471],"min":[0,0],"type":"VEC2"},{"bufferView":11,"componentType":5123,"count":240,"max":[179],"min":[0],"type":"SCALAR"},{"bufferView":12,"componentType":5126,"count":80,"max":[0.375,0.6875,0.375],"min":[-0.375,-0.1875,-0.375],"type":"VEC3"},{"bufferView":13,"componentType":5126,"count":80,"max":[1,1,1],"min":[-1,-1,-1],"type":"VEC3"},{"bufferView":14,"componentType":5126,"count":80,"max":[0.40589749813079834,0.5],"min":[0,0],"type":"VEC2"},{"bufferView":15,"componentType":5123,"count":96,"max":[79],"min":[0],"type":"SCALAR"},{"bufferView":16,"componentType":5126,"count":80,"max":[0.3125,0.75,0.3125],"min":[-0.3125,-0.0625,-0.3125],"type":"VEC3"},{"bufferView":17,"componentType":5126,"count":80,"max":[1,1,1],"min":[-1,-1,-1],"type":"VEC3"},{"bufferView":18,"componentType":5126,"count":80,"max":[0.270599365234375,0.6875],"min":[0,0],"type":"VEC2"},{"bufferView":19,"componentType":5123,"count":96,"max":[79],"min":[0],"type":"SCALAR"},{"bufferView":20,"componentType":5126,"count":80,"max":[0.1875,0.6875,0.1875],"min":[-0.1875,0,-0.1875],"type":"VEC3"},{"bufferView":21,"componentType":5126,"count":80,"max":[1,1,1],"min":[-1,-1,-1],"type":"VEC3"},{"bufferView":22,"componentType":5126,"count":80,"max":[0.270599365234375,0.6875],"min":[0,0],"type":"VEC2"},{"bufferView":23,"componentType":5123,"count":96,"max":[79],"min":[0],"type":"SCALAR"},{"bufferView":24,"componentType":5126,"count":112,"max":[0.40625,0.34375,0.40625],"min":[-0.40625,-0.34375,-0.40625],"type":"VEC3"},{"bufferView":25,"componentType":5126,"count":112,"max":[0.8981584906578064,0.9437147378921509,0.8981584906578064],"min":[-0.8981584906578064,-0.9437147378921509,-0.8981584906578064],"type":"VEC3"},{"bufferView":26,"componentType":5126,"count":112,"max":[0.2847749888896942,0.2631000280380249],"min":[0,0],"type":"VEC2"},{"bufferView":27,"componentType":5123,"count":144,"max":[111],"min":[0],"type":"SCALAR"},{"bufferView":28,"componentType":5126,"count":112,"max":[0.53125,0.46875,0.40625],"min":[-0.53125,-0.46875,-0.40625],"type":"VEC3"},{"bufferView":29,"componentType":5126,"count":112,"max":[0.9052181839942932,0.939235270023346,0.9411911964416504],"min":[-0.9052181839942932,-0.939235270023346,-0.9411911964416504],"type":"VEC3"},{"bufferView":30,"componentType":5126,"count":112,"max":[0.2847749888896942,0.2631000280380249],"min":[0,0],"type":"VEC2"},{"bufferView":31,"componentType":5123,"count":144,"max":[111],"min":[0],"type":"SCALAR"},{"bufferView":32,"componentType":5126,"count":112,"max":[0.25,0.203125,0.421875],"min":[-0.25,-0.203125,-0.421875],"type":"VEC3"},{"bufferView":33,"componentType":5126,"count":112,"max":[0.8909077644348145,0.9806869626045227,0.7580769062042236],"min":[-0.8909077644348145,-0.9806869626045227,-0.7580769062042236],"type":"VEC3"},{"bufferView":34,"componentType":5126,"count":112,"max":[0.2847749888896942,0.2631000280380249],"min":[0,0],"type":"VEC2"},{"bufferView":35,"componentType":5123,"count":144,"max":[111],"min":[0],"type":"SCALAR"},{"bufferView":36,"componentType":5126,"count":80,"max":[0.109375,0.640625,0.09375],"min":[-0.109375,0.046875,-0.09375],"type":"VEC3"},{"bufferView":37,"componentType":5126,"count":80,"max":[1,1,1],"min":[-1,-1,-1],"type":"VEC3"},{"bufferView":38,"componentType":5126,"count":80,"max":[0.270599365234375,0.6875],"min":[0,0],"type":"VEC2"},{"bufferView":39,"componentType":5123,"count":96,"max":[79],"min":[0],"type":"SCALAR"},{"bufferView":40,"componentType":5126,"count":112,"max":[0.15625,0.15625,0.28125],"min":[-0.15625,-0.15625,-0.28125],"type":"VEC3"},{"bufferView":41,"componentType":5126,"count":112,"max":[0.9238803386688232,0.9745301008224487,0.8016963601112366],"min":[-0.9238803386688232,-0.9745301008224487,-0.8016963601112366],"type":"VEC3"},{"bufferView":42,"componentType":5126,"count":112,"max":[0.2847749888896942,0.2631000280380249],"min":[0,0],"type":"VEC2"},{"bufferView":43,"componentType":5123,"count":144,"max":[111],"min":[0],"type":"SCALAR"}],"materials":[{"pbrMetallicRoughness":{"metallicFactor":0,"roughnessFactor":1},"alphaMode":"MASK","alphaCutoff":0.05,"doubleSided":true},{"pbrMetallicRoughness":{"metallicFactor":0,"roughnessFactor":1},"alphaMode":"MASK","alphaCutoff":0.05,"doubleSided":true}],"meshes":[{"primitives":[{"mode":4,"attributes":{"POSITION":0,"NORMAL":1,"TEXCOORD_0":2},"indices":3,"material":0}]},{"primitives":[{"mode":4,"attributes":{"POSITION":4,"NORMAL":5,"TEXCOORD_0":6},"indices":7,"material":1}]},{"primitives":[{"mode":4,"attributes":{"POSITION":8,"NORMAL":9,"TEXCOORD_0":10},"indices":11,"material":0}]},{"primitives":[{"mode":4,"attributes":{"POSITION":12,"NORMAL":13,"TEXCOORD_0":14},"indices":15,"material":1}]},{"primitives":[{"mode":4,"attributes":{"POSITION":16,"NORMAL":17,"TEXCOORD_0":18},"indices":19,"material":1}]},{"primitives":[{"mode":4,"attributes":{"POSITION":20,"NORMAL":21,"TEXCOORD_0":22},"indices":23,"material":1}]},{"primitives":[{"mode":4,"attributes":{"POSITION":24,"NORMAL":25,"TEXCOORD_0":26},"indices":27,"material":0}]},{"primitives":[{"mode":4,"attributes":{"POSITION":28,"NORMAL":29,"TEXCOORD_0":30},"indices":31,"material":0}]},{"primitives":[{"mode":4,"attributes":{"POSITION":32,"NORMAL":33,"TEXCOORD_0":34},"indices":35,"material":0}]},{"primitives":[{"mode":4,"attributes":{"POSITION":36,"NORMAL":37,"TEXCOORD_0":38},"indices":39,"material":1}]},{"primitives":[{"mode":4,"attributes":{"POSITION":40,"NORMAL":41,"TEXCOORD_0":42},"indices":43,"material":0}]}]}