{"asset":{"version":"2.0","generator":"Blockbench 4.12.6 glTF exporter"},"scenes":[{"nodes":[4],"name":"blockbench_export"}],"scene":0,"nodes":[{"name":"circle","mesh":0},{"rotation":[-0.06540312923014306,0,0,0.9978589232386035],"translation":[0,27,4],"name":"circle_selection","mesh":1},{"rotation":[-0.46193976625564315,-0.19134171618254486,-0.3314135740355918,0.8001031451912657],"translation":[0.03472,35.17188,11.04012],"name":"circle","mesh":2},{"rotation":[-0.7697511313200578,-0.23106545963812575,-0.2521637004065665,0.5389855446957557],"translation":[-0.96528,40.67188,-8.95988],"name":"circle","mesh":3},{"children":[0,1,2,3]}],"bufferViews":[{"buffer":0,"byteOffset":0,"byteLength":4140,"target":34962,"byteStride":12},{"buffer":0,"byteOffset":4140,"byteLength":4140,"target":34962,"byteStride":12},{"buffer":0,"byteOffset":8280,"byteLength":2760,"target":34962,"byteStride":8},{"buffer":0,"byteOffset":11040,"byteLength":1004,"target":34963},{"buffer":0,"byteOffset":12044,"byteLength":1056,"target":34962,"byteStride":12},{"buffer":0,"byteOffset":13100,"byteLength":1056,"target":34962,"byteStride":12},{"buffer":0,"byteOffset":14156,"byteLength":704,"target":34962,"byteStride":8},{"buffer":0,"byteOffset":14860,"byteLength":240,"target":34963},{"buffer":0,"byteOffset":15100,"byteLength":3072,"target":34962,"byteStride":12},{"buffer":0,"byteOffset":18172,"byteLength":3072,"target":34962,"byteStride":12},{"buffer":0,"byteOffset":21244,"byteLength":2048,"target":34962,"byteStride":8},{"buffer":0,"byteOffset":23292,"byteLength":744,"target":34963},{"buffer":0,"byteOffset":24036,"byteLength":3072,"target":34962,"byteStride":12},{"buffer":0,"byteOffset":27108,"byteLength":3072,"target":34962,"byteStride":12},{"buffer":0,"byteOffset":30180,"byteLength":2048,"target":34962,"byteStride":8},{"buffer":0,"byteOffset":32228,"byteLength":744,"target":34963}],"buffers":[{"byteLength":32972,"uri":"data:application/octet-stream;base64,"}],"accessors":[{"bufferView":0,"componentType":5126,"count":345,"max":[13.029230117797852,41.42677307128906,11.470560073852539],"min":[-11.736120223999023,-3.9999899864196777,-19.924509048461914],"type":"VEC3"},{"bufferView":1,"componentType":5126,"count":345,"max":[0.9932823181152344,0.9893596768379211,0.9998721480369568],"min":[-1,-0.4248906970024109,-0.9981323480606079],"type":"VEC3"},{"bufferView":2,"componentType":5126,"count":345,"max":[0.421875,0.734375],"min":[0,0],"type":"VEC2"},{"bufferView":3,"componentType":5123,"count":501,"max":[344],"min":[0],"type":"SCALAR"},{"bufferView":4,"componentType":5126,"count":88,"max":[2.9497199058532715,8.244261741638184,6.7468180656433105],"min":[-3.0369598865509033,-4.357180118560791,-2.756809949874878],"type":"VEC3"},{"bufferView":5,"componentType":5126,"count":88,"max":[0.9858002662658691,0.9552870988845825,0.9968855381011963],"min":[-0.9789418578147888,-0.7409789562225342,-0.8444231152534485],"type":"VEC3"},{"bufferView":6,"componentType":5126,"count":88,"max":[0.06764945387840271,0.06764942407608032],"min":[0,0],"type":"VEC2"},{"bufferView":7,"componentType":5123,"count":120,"max":[87],"min":[0],"type":"SCALAR"},{"bufferView":8,"componentType":5126,"count":256,"max":[11.691289901733398,10.328129768371582,10.432729721069336],"min":[-11.149080276489258,-11.671870231628418,-10.629039764404297],"type":"VEC3"},{"bufferView":9,"componentType":5126,"count":256,"max":[0.9419344663619995,1,0.9954425096511841],"min":[-0.9873119592666626,-0.9151265621185303,-0.9572567939758301],"type":"VEC3"},{"bufferView":10,"componentType":5126,"count":256,"max":[0.5454810261726379,0.6139664053916931],"min":[0.07570703327655792,0],"type":"VEC2"},{"bufferView":11,"componentType":5123,"count":372,"max":[255],"min":[0],"type":"SCALAR"},{"bufferView":12,"componentType":5126,"count":256,"max":[15.691289901733398,18.3281307220459,15.432729721069336],"min":[-15.149080276489258,-19.6718692779541,-15.629039764404297],"type":"VEC3"},{"bufferView":13,"componentType":5126,"count":256,"max":[0.9510031938552856,1,0.9952093958854675],"min":[-0.9904983639717102,-0.8860790133476257,-0.954456627368927],"type":"VEC3"},{"bufferView":14,"componentType":5126,"count":256,"max":[0.5625,0.5365883111953735],"min":[0.003743515582755208,0],"type":"VEC2"},{"bufferView":15,"componentType":5123,"count":372,"max":[255],"min":[0],"type":"SCALAR"}],"materials":[{"pbrMetallicRoughness":{"metallicFactor":0,"roughnessFactor":1,"baseColorTexture":{"index":0}},"alphaMode":"MASK","alphaCutoff":0.05,"doubleSided":true},{"pbrMetallicRoughness":{"metallicFactor":0,"roughnessFactor":1,"baseColorTexture":{"index":1}},"alphaMode":"MASK","alphaCutoff":0.05,"doubleSided":true}],"textures":[{"sampler":0,"source":0,"name":"texture2"},{"sampler":1,"source":1,"name":"texture"}],"samplers":[{"magFilter":9728,"minFilter":9728,"wrapS":10497,"wrapT":10497},{"magFilter":9728,"minFilter":9728,"wrapS":10497,"wrapT":10497}],"images":[{"mimeType":"image/png","uri":"data:image/png;base64,"},{"mimeType":"image/png","uri":"data:image/png;base64,"}],"meshes":[{"primitives":[{"mode":4,"attributes":{"POSITION":0,"NORMAL":1,"TEXCOORD_0":2},"indices":3,"material":0}]},{"primitives":[{"mode":4,"attributes":{"POSITION":4,"NORMAL":5,"TEXCOORD_0":6},"indices":7,"material":0}]},{"primitives":[{"mode":4,"attributes":{"POSITION":8,"NORMAL":9,"TEXCOORD_0":10},"indices":11,"material":1}]},{"primitives":[{"mode":4,"attributes":{"POSITION":12,"NORMAL":13,"TEXCOORD_0":14},"indices":15,"material":1}]}]}