{
	"asset":{
		"generator":"Khronos glTF Blender I/O v3.6.27",
		"version":"2.0"
	},
	"scene":0,
	"scenes":[
		{
			"name":"Scene",
			"nodes":[
				0,
				1
			]
		}
	],
	"nodes":[
		{
			"mesh":0,
			"name":"Cube"
		},
		{
			"mesh":1,
			"name":"Cube.001",
			"translation":[
				7.530325412750244,
				0.5275915265083313,
				1.438569188117981
			]
		}
	],
	"materials":[
		{
			"doubleSided":true,
			"name":"Material",
			"pbrMetallicRoughness":{
				"baseColorFactor":[
					0.800000011920929,
					0.800000011920929,
					0.800000011920929,
					1
				],
				"metallicFactor":0,
				"roughnessFactor":0.5
			}
		},
		{
			"doubleSided":true,
			"name":"Material.002",
			"pbrMetallicRoughness":{
				"baseColorFactor":[
					0.800000011920929,
					0.800000011920929,
					0.800000011920929,
					1
				],
				"metallicFactor":0,
				"roughnessFactor":0.5
			}
		}
	],
	"meshes":[
		{
			"name":"Cube",
			"primitives":[
				{
					"attributes":{
						"POSITION":0,
						"NORMAL":1,
						"TEXCOORD_0":2,
						"TANGENT":3
					},
					"indices":4,
					"material":0
				}
			]
		},
		{
			"name":"Cube.002",
			"primitives":[
				{
					"attributes":{
						"POSITION":5,
						"NORMAL":6,
						"TEXCOORD_0":7,
						"TANGENT":8
					},
					"indices":9,
					"material":1
				}
			]
		}
	],
	"accessors":[
		{
			"bufferView":0,
			"componentType":5126,
			"count":3,
			"max":[
				0.6666666269302368,
				0,
				1.3333333730697632
			],
			"min":[
				-1.3333333730697632,
				0,
				-0.6666666269302368
			],
			"type":"VEC3"
		},
		{
			"bufferView":1,
			"componentType":5126,
			"count":3,
			"type":"VEC3"
		},
		{
			"bufferView":2,
			"componentType":5126,
			"count":3,
			"type":"VEC2"
		},
		{
			"bufferView":3,
			"componentType":5126,
			"count":3,
			"type":"VEC4"
		},
		{
			"bufferView":4,
			"componentType":5123,
			"count":3,
			"type":"SCALAR"
		},
		{
			"bufferView":5,
			"componentType":5126,
			"count":37,
			"max":[
				5.9309539794921875,
				2.3402647972106934,
				4.93917989730835
			],
			"min":[
				-6.249842643737793,
				-0.25249040126800537,
				-5.460514068603516
			],
			"type":"VEC3"
		},
		{
			"bufferView":6,
			"componentType":5126,
			"count":37,
			"type":"VEC3"
		},
		{
			"bufferView":7,
			"componentType":5126,
			"count":37,
			"type":"VEC2"
		},
		{
			"bufferView":8,
			"componentType":5126,
			"count":37,
			"type":"VEC4"
		},
		{
			"bufferView":9,
			"componentType":5123,
			"count":39,
			"type":"SCALAR"
		}
	],
	"bufferViews":[
		{
			"buffer":0,
			"byteLength":36,
			"byteOffset":0,
			"target":34962
		},
		{
			"buffer":0,
			"byteLength":36,
			"byteOffset":36,
			"target":34962
		},
		{
			"buffer":0,
			"byteLength":24,
			"byteOffset":72,
			"target":34962
		},
		{
			"buffer":0,
			"byteLength":48,
			"byteOffset":96,
			"target":34962
		},
		{
			"buffer":0,
			"byteLength":6,
			"byteOffset":144,
			"target":34963
		},
		{
			"buffer":0,
			"byteLength":444,
			"byteOffset":152,
			"target":34962
		},
		{
			"buffer":0,
			"byteLength":444,
			"byteOffset":596,
			"target":34962
		},
		{
			"buffer":0,
			"byteLength":296,
			"byteOffset":1040,
			"target":34962
		},
		{
			"buffer":0,
			"byteLength":592,
			"byteOffset":1336,
			"target":34962
		},
		{
			"buffer":0,
			"byteLength":78,
			"byteOffset":1928,
			"target":34963
		}
	],
	"buffers":[
		{
			"byteLength":2008,
			"uri":"data:application/octet-stream;base64,"
		}
	]
}
